<?xml version="1.0" standalone="no"?>
<!DOCTYPE svg PUBLIC "-//W3C//DTD SVG 20010904//EN"
 "http://www.w3.org/TR/2001/REC-SVG-20010904/DTD/svg10.dtd">
<svg version="1.0" xmlns="http://www.w3.org/2000/svg"
 width="521.000000pt" height="114.000000pt" viewBox="0 0 521.000000 114.000000"
 preserveAspectRatio="xMidYMid meet">

<g transform="translate(0.000000,114.000000) scale(0.100000,-0.100000)"
fill="#000000" stroke="none">
<path d="M788 1063 c-38 -38 -68 -71 -68 -75 0 -3 8 -5 18 -4 15 1 17 -12 20
-134 1 -76 7 -145 13 -157 34 -64 174 -51 192 18 5 17 1 18 -32 13 -63 -10
-71 7 -71 147 l0 121 43 -4 c39 -3 42 -1 45 25 3 26 1 27 -42 27 l-45 0 -3 45
-3 46 -67 -68z"/>
<path d="M200 1040 c-14 -6 -35 -23 -47 -38 l-23 -27 0 33 c0 37 -6 38 -77 17
l-51 -15 15 -31 c12 -25 15 -59 11 -175 l-4 -144 56 0 55 0 -3 140 c-5 159 -1
170 58 170 59 0 62 -11 58 -170 l-3 -140 59 0 59 0 -7 38 c-3 20 -6 94 -6 164
0 117 -2 129 -23 153 -25 30 -86 41 -127 25z"/>
<path d="M482 1040 c-58 -14 -99 -67 -80 -103 16 -32 60 -18 81 26 24 52 75
52 92 -1 15 -49 -1 -72 -79 -107 -40 -18 -83 -45 -95 -60 -47 -61 -11 -133 71
-142 42 -5 50 -2 77 25 l30 30 16 -24 c31 -47 104 -44 130 6 14 28 14 30 -3
30 -36 0 -42 20 -42 135 0 68 -5 120 -13 135 -24 49 -101 70 -185 50z m98
-243 c0 -70 -10 -87 -52 -87 -61 0 -61 84 0 125 20 14 40 25 44 25 5 0 8 -28
8 -63z"/>
<path d="M1412 1030 c-57 -18 -57 -18 -41 -69 7 -21 10 -83 7 -167 l-5 -134
57 0 56 0 -4 125 c-3 86 0 134 8 155 14 33 40 39 60 15 17 -20 43 -19 63 3 24
27 21 59 -8 78 -38 25 -85 9 -107 -36 l-18 -35 0 37 c0 20 -3 39 -7 41 -5 2
-32 -4 -61 -13z"/>
<path d="M1724 1031 c-132 -60 -142 -292 -15 -358 78 -41 173 -22 212 41 26
43 24 49 -13 30 -38 -20 -100 -22 -133 -4 -28 15 -55 66 -55 104 l0 26 110 0
110 0 0 38 c0 111 -107 172 -216 123z m106 -46 c6 -8 13 -29 13 -47 l2 -33
-64 -3 c-55 -3 -63 -1 -57 13 3 9 6 23 6 31 0 41 74 70 100 39z"/>
<path d="M999 1033 c-25 -4 -26 -6 -18 -41 5 -20 9 -87 9 -149 0 -124 10 -157
51 -179 55 -28 115 -15 156 34 l23 27 0 -32 0 -33 55 0 c54 0 55 0 49 25 -4
15 -7 100 -8 190 l-1 165 -26 0 c-15 0 -39 -3 -55 -6 l-29 -5 4 -142 c3 -126
1 -142 -15 -154 -28 -20 -81 -17 -94 6 -5 11 -10 83 -10 160 l0 141 -32 -1
c-18 -1 -45 -4 -59 -6z"/>
<path d="M105 565 c-5 -2 -29 -9 -53 -15 -38 -10 -42 -13 -30 -27 10 -12 13
-72 13 -260 l0 -243 55 0 55 0 -4 150 -3 150 27 10 c38 14 61 12 80 -7 15 -14
17 -36 13 -160 l-3 -143 55 0 56 0 -3 148 c-2 81 -6 161 -9 179 -6 43 -37 63
-97 63 -42 0 -54 -5 -83 -34 l-34 -34 0 114 c0 114 -2 121 -35 109z"/>
<path d="M2275 565 c-5 -2 -29 -9 -52 -15 l-42 -10 15 -35 c11 -26 14 -84 14
-245 l0 -210 28 -12 c15 -6 65 -13 112 -15 74 -3 90 -1 125 19 58 33 90 101
89 193 0 116 -46 175 -136 175 -43 0 -54 -4 -84 -34 l-34 -34 0 114 c0 114 -2
121 -35 109z m161 -251 c20 -30 23 -152 6 -196 -17 -41 -56 -63 -95 -51 l-32
9 -3 119 c-3 136 1 145 70 145 29 0 41 -6 54 -26z"/>
<path d="M3025 565 c-5 -2 -29 -9 -52 -15 l-42 -10 16 -38 c13 -31 15 -74 11
-259 l-4 -223 56 0 55 0 -3 150 -4 150 27 10 c38 14 61 12 80 -7 15 -15 17
-35 13 -160 l-4 -143 56 0 55 0 -3 148 c-1 81 -5 161 -8 179 -6 43 -38 63 -97
63 -42 0 -54 -5 -83 -34 l-34 -34 0 114 c0 114 -2 121 -35 109z"/>
<path d="M4023 550 c-24 -10 -38 -48 -29 -78 10 -30 52 -45 84 -30 38 18 44
79 10 102 -25 18 -33 19 -65 6z"/>
<path d="M445 403 l-41 -4 3 -132 c5 -168 9 -194 38 -223 20 -19 34 -24 79
-24 48 0 58 4 85 31 l31 31 0 -31 c0 -31 1 -31 53 -31 l52 0 -3 192 c-2 106
-5 194 -5 194 -1 1 -28 -1 -60 -4 -49 -4 -57 -7 -51 -21 4 -9 9 -72 12 -141 5
-138 2 -144 -55 -156 -24 -5 -36 -1 -52 15 -19 19 -21 32 -21 166 0 110 -3
145 -12 143 -7 -1 -31 -3 -53 -5z"/>
<path d="M827 393 c-40 -12 -47 -18 -40 -31 4 -9 8 -90 8 -180 l0 -162 57 0
57 0 -6 140 c-5 126 -4 142 12 160 19 21 60 26 85 10 12 -8 15 -36 13 -160
l-2 -150 57 0 57 0 -3 147 c-4 132 -2 148 14 160 25 18 59 16 79 -4 15 -15 17
-35 13 -160 l-4 -143 56 0 56 0 -3 148 c-2 81 -6 161 -9 179 -6 43 -38 63 -96
63 -41 0 -52 -5 -83 -35 -23 -23 -35 -30 -35 -20 0 32 -38 55 -91 55 -45 0
-55 -4 -85 -34 l-34 -34 0 34 c0 38 -3 39 -73 17z"/>
<path d="M1433 395 c-59 -25 -81 -95 -34 -110 29 -9 49 4 61 40 19 57 82 56
93 -2 9 -50 -8 -71 -86 -107 -82 -37 -107 -64 -107 -114 0 -52 37 -82 100 -82
42 0 55 5 74 25 l24 25 16 -25 c13 -20 25 -25 56 -25 62 0 113 64 58 72 -22 3
-23 8 -29 128 -3 69 -9 133 -13 143 -20 44 -143 63 -213 32z m127 -235 c0 -61
-15 -90 -47 -90 -40 0 -68 61 -45 98 12 19 76 61 85 55 4 -2 7 -31 7 -63z"/>
<path d="M1757 392 c-38 -12 -46 -19 -40 -31 4 -9 8 -89 8 -179 l0 -163 59 3
58 3 -1 147 c-2 137 -1 148 18 157 33 18 69 13 86 -12 11 -18 14 -48 10 -143
-2 -67 -5 -127 -7 -135 -2 -11 12 -15 57 -17 l60 -3 -3 133 c-4 231 -15 258
-100 258 -51 0 -79 -12 -109 -48 l-23 -27 0 38 c0 42 -3 42 -73 19z"/>
<path d="M2679 387 c-106 -71 -115 -269 -16 -339 46 -33 144 -37 190 -9 28 17
40 32 65 84 2 4 -13 -1 -34 -12 -75 -41 -150 -20 -178 49 -28 70 -29 69 97 72
l112 3 -2 38 c-3 53 -31 105 -64 122 -44 23 -130 19 -170 -8z m125 -39 c9 -12
16 -35 16 -50 0 -22 -5 -28 -22 -28 -13 0 -41 -3 -62 -7 l-39 -6 6 39 c11 66
70 96 101 52z"/>
<path d="M3383 395 c-59 -25 -81 -95 -34 -110 29 -9 49 4 61 40 18 56 80 56
94 1 12 -47 -8 -73 -87 -109 -82 -38 -107 -65 -107 -115 0 -52 37 -82 100 -82
42 0 55 5 74 25 l24 25 16 -25 c23 -35 97 -36 120 -3 22 31 20 46 -6 50 -22 3
-23 8 -29 128 -3 69 -9 133 -13 143 -20 44 -143 63 -213 32z m122 -292 c-13
-54 -95 -31 -95 27 0 33 15 52 60 79 l35 21 3 -52 c2 -29 1 -62 -3 -75z"/>
<path d="M3632 395 c2 -6 37 -93 78 -193 61 -149 78 -182 93 -180 14 2 36 46
86 168 37 91 73 175 79 187 16 30 17 29 -30 28 -41 0 -43 -1 -45 -35 -3 -37
-54 -190 -63 -190 -8 0 -58 137 -68 185 l-8 40 -62 0 c-42 1 -62 -3 -60 -10z"/>
<path d="M4032 393 c-43 -13 -52 -19 -45 -32 4 -9 8 -89 8 -179 l0 -162 64 0
c61 0 63 1 57 23 -3 12 -6 100 -6 195 0 131 -3 172 -12 171 -7 0 -37 -8 -66
-16z"/>
<path d="M4247 389 c-49 -26 -86 -84 -93 -145 -16 -130 63 -224 186 -224 57 0
93 15 132 57 36 37 48 73 48 138 0 65 -12 101 -48 139 -54 58 -152 73 -225 35z
m117 -30 c14 -7 30 -25 36 -42 16 -46 13 -183 -5 -217 -31 -60 -105 -44 -124
27 -24 84 -7 200 32 228 26 18 29 18 61 4z"/>
<path d="M4600 403 l-46 -4 3 -132 c5 -168 9 -194 38 -223 44 -43 154 -29 178
23 l12 27 5 -34 c5 -34 6 -35 55 -38 l50 -3 -4 193 c-1 106 -4 194 -5 195 0 1
-26 -2 -56 -5 -52 -7 -55 -9 -50 -32 3 -14 5 -79 5 -145 l0 -120 -28 -13 c-38
-18 -75 -8 -87 24 -6 14 -10 86 -10 160 0 74 -3 133 -7 132 -5 -1 -28 -3 -53
-5z"/>
<path d="M4977 392 c-38 -12 -46 -19 -40 -31 4 -9 8 -89 8 -179 l0 -163 60 3
c47 2 59 6 57 18 -7 28 -5 246 2 267 9 28 35 37 56 18 35 -32 80 -12 80 35 0
34 -17 50 -55 50 -37 0 -57 -14 -79 -55 l-15 -30 -1 43 c0 47 -2 48 -73 24z"/>
</g>
</svg>
