<?xml version="1.0" standalone="no"?>
<!DOCTYPE svg PUBLIC "-//W3C//DTD SVG 20010904//EN"
 "http://www.w3.org/TR/2001/REC-SVG-20010904/DTD/svg10.dtd">
<svg version="1.0" xmlns="http://www.w3.org/2000/svg"
 width="493.000000pt" height="102.000000pt" viewBox="0 0 493.000000 102.000000"
 preserveAspectRatio="xMidYMid meet">

<g transform="translate(0.000000,102.000000) scale(0.100000,-0.100000)"
fill="#000000" stroke="none">
<path d="M416 697 l-398 -312 62 -3 c61 -3 64 -2 124 45 34 26 184 144 333
261 l271 213 5 52 c3 29 4 53 3 54 -1 2 -181 -138 -400 -310z"/>
<path d="M638 697 l-396 -312 180 -3 c100 -1 182 -1 184 0 1 2 5 20 9 41 l7
37 -68 0 c-68 0 -68 0 -49 19 29 28 428 342 431 338 1 -1 -11 -117 -27 -257
-16 -140 -29 -265 -29 -277 0 -35 -12 -27 -46 29 l-32 52 -7 -67 -7 -67 67
-105 c36 -58 71 -107 76 -110 5 -4 9 6 9 22 1 15 24 241 53 501 29 259 50 472
47 472 -3 0 -183 -141 -402 -313z"/>
<path d="M1759 900 c-126 -16 -243 -101 -296 -214 -26 -56 -28 -71 -28 -176 1
-103 3 -121 27 -172 72 -156 226 -237 407 -216 129 15 236 90 294 207 30 62
32 71 32 181 0 108 -2 119 -31 180 -53 110 -157 191 -265 205 -24 4 -53 8 -64
9 -11 2 -45 0 -76 -4z m184 -138 c86 -46 129 -132 129 -257 -1 -175 -112 -283
-280 -273 -93 5 -152 41 -196 118 -29 52 -31 61 -31 160 0 99 2 108 31 160 68
121 220 161 347 92z"/>
<path d="M3236 899 c-230 -33 -360 -248 -300 -499 8 -36 26 -83 39 -105 31
-54 106 -122 160 -146 132 -58 326 -32 421 58 36 34 79 97 89 131 6 21 4 22
-57 22 l-63 0 -35 -47 c-50 -66 -97 -88 -190 -87 -56 0 -85 6 -115 21 -69 36
-116 100 -130 176 l-7 37 308 2 309 3 3 45 c5 60 -15 154 -43 210 -45 89 -148
162 -245 175 -25 4 -54 8 -65 9 -11 2 -46 -1 -79 -5z m180 -127 c67 -34 105
-87 119 -166 l7 -36 -247 0 -247 0 7 33 c18 80 82 156 156 184 49 18 155 11
205 -15z"/>
<path d="M2190 888 c0 -2 67 -172 148 -378 l148 -375 75 -3 76 -3 83 213 c46
117 114 288 151 381 l67 167 -68 0 -67 0 -118 -320 c-66 -176 -122 -317 -126
-313 -3 5 -58 149 -120 320 l-114 313 -67 0 c-38 0 -68 -1 -68 -2z"/>
<path d="M3975 873 c-79 -24 -134 -70 -178 -148 -21 -38 -22 -55 -27 -318 l-5
-277 58 0 57 0 0 243 c1 252 7 295 47 339 27 30 72 51 123 57 l45 6 3 58 3 57
-38 -1 c-21 0 -60 -7 -88 -16z"/>
<path d="M4190 510 l0 -380 65 0 65 0 0 380 0 380 -65 0 -65 0 0 -380z"/>
<path d="M4420 840 l0 -50 95 0 95 0 0 -330 0 -330 60 0 60 0 0 330 0 330 95
0 95 0 0 50 0 50 -250 0 -250 0 0 -50z"/>
<path d="M723 583 l-42 -38 -12 -135 c-7 -74 -15 -139 -19 -143 -4 -5 -17 5
-29 22 -20 27 -28 31 -71 31 l-48 0 101 -154 c56 -85 103 -154 103 -153 1 1 7
49 13 107 6 58 20 186 31 284 12 99 20 188 18 198 -3 15 -9 12 -45 -19z"/>
</g>
</svg>
