<?xml version="1.0" encoding="utf-8"?>
<!-- Generator: Adobe Illustrator 19.2.1, SVG Export Plug-In . SVG Version: 6.00 Build 0)  -->
<svg version="1.1" id="layer" xmlns="http://www.w3.org/2000/svg" xmlns:xlink="http://www.w3.org/1999/xlink" x="0px" y="0px"
	 width="682" height="652" viewBox="0 0 652 652" style="enable-background:new 0 0 652 652;" xml:space="preserve">
<style type="text/css">
	.st0{fill:#000;}
</style>
<g>
	<path class="st0" d="M268.7,167.5c-0.8-2,0.4-4.8,0.4-4.8c1.5-0.5,4.3-0.2,5.1,1.8c0.9,2.1,0,3.9-2.4,5.4
		C271.9,169.8,270.4,169.3,268.7,167.5"/>
</g>
<polygon class="st0" points="340.2,289.5 325.4,301.2 325.4,179.9 340.2,179.9 "/>
<g>
	<path class="st0" d="M349.7,278.9l0-99h12l0.1,75.5C359.6,262.5,355.8,270.3,349.7,278.9"/>
</g>
<polygon class="st0" points="301.2,290.6 316.1,302.3 316.1,179.9 301.2,179.9 "/>
<g>
	<path class="st0" d="M292.8,282.3l-0.1-102.4h-13.3v80.6C280,265.9,289.7,279.7,292.8,282.3"/>
	<path class="st0" d="M320,317.9c-55.9,0-101.3-45.5-101.3-101.3c0-55.9,45.4-101.3,101.3-101.3c55.9,0,101.3,45.4,101.3,101.3
		C421.4,272.4,375.9,317.9,320,317.9v3.6c57.8,0,104.9-47.1,104.9-104.9S377.9,111.7,320,111.7c-57.8,0-104.9,47.1-104.9,104.9
		S262.2,321.5,320,321.5V317.9z"/>
	<path class="st0" d="M320,357.7c-77.8,0-141.1-63.3-141.1-141.1S242.2,75.5,320,75.5c77.8,0,141.1,63.3,141.1,141.1
		S397.9,357.7,320,357.7v4.6c80.4,0,145.8-65.4,145.8-145.7S400.4,70.8,320,70.8c-80.4,0-145.8,65.4-145.8,145.7
		S239.7,362.3,320,362.3V357.7z"/>
	<path class="st0" d="M199.9,257.9c3.2,3.1,4.8,5.3,6.5,9.3c1.6,3.6,1.9,6,2.1,9.9l7.2-3.2c-2.7-3-4.2-4.8-5.8-8.4
		c-1.8-4-2.4-6.6-2.7-11L199.9,257.9z"/>
	<path class="st0" d="M199.4,273.9c3.1-3.2,5.2-4.8,9.3-6.5c3.7-1.5,6-1.9,9.9-2.1l-3.2-7.2c-2.9,2.7-4.8,4.1-8.4,5.8
		c-4,1.8-6.6,2.4-11,2.7L199.4,273.9z"/>
	<path class="st0" d="M439.9,257.9c-3.2,3.1-4.8,5.3-6.5,9.3c-1.6,3.7-1.9,6-2.1,9.9l-7.2-3.2c2.6-3,4.2-4.8,5.8-8.4
		c1.8-4,2.4-6.6,2.7-11L439.9,257.9z"/>
	<path class="st0" d="M440.4,273.9c-3.1-3.2-5.2-4.8-9.3-6.5c-3.7-1.5-6-1.9-10-2.1l3.2-7.2c2.9,2.7,4.8,4.1,8.4,5.8
		c4,1.8,6.6,2.4,11,2.7L440.4,273.9z"/>
	<path class="st0" d="M263.2,317.6c1.9-1,2.8-0.1,3.3-0.7c0.4-0.5-0.1-0.6-0.6-1.1c-0.7-0.6-1.5-1-2.2-1.5c-0.7-0.6-1.3-1.2-2.1-1.8
		c-0.3-0.2-1-0.9-1.4-0.4c-0.7,0.9,2.6,1.9,0.6,4.4c-0.3,0.4-1.1,1.3-3.2,2.5l-9.7,5.3c-0.2,0.1-0.6,0.4-0.8,0.3
		c-0.1-0.1,0-0.6,0.1-0.8l3.4-11c0.6-2.1,1.3-3.6,1.9-4.4c0.9-1.1,2.1,0.5,2.6-0.2c0.4-0.4,0.2-0.5-0.6-1.1c-0.4-0.3-1.2-0.8-2.8-2
		c-0.8-0.7-1.6-1.5-2.5-2.1c-0.4-0.3-1-1.1-1.5-0.5c-0.1,0.2,0.1,0.6,0.1,0.7c0.8,1.1,0.9,1.6,0.6,3l-5.8,20.2
		c-0.4,1.5-0.4,1.9-0.1,2.1c0.3,0.2,0.5,0.1,1.3-0.3L263.2,317.6z"/>
	<path class="st0" d="M288.4,328c0.6-2.5,2.5-0.7,2.8-2c0.1-0.4,0-0.5-0.7-0.6c-0.5-0.1-0.9-0.1-3.5-0.7c-1.2-0.3-2.9-0.9-4.2-1.2
		c-0.6-0.2-1.1,0-1.1,0.3c-0.3,1.1,3.4,1.1,2.7,3.9l-3.8,15.4c-1,4-2.9,1.6-3.3,3.1c0,0.2,0.1,0.4,0.5,0.5c1.7,0.4,3,0.6,4,0.9
		c1.5,0.4,3.4,1,8.1,2.2c2.5,0.6,5-1.6,5.7-4.1c0.1-0.6,0-0.8-0.2-0.8c-1.2-0.3-1.8,4.1-9.5,2.2c-2.2-0.6-1.8-1.7-1.3-3.7L288.4,328
		z"/>
	<path class="st0" d="M306.9,331.9c0.2-2.3,0.3-2.3,4.1-2.1c6.1,0.4,3.4,4.2,4.9,4.3c0.7,0.1,0.6-1.1,0.6-1.5l0.1-3.3
		c0-0.3-0.2-0.6-0.6-0.7c-2.8-0.2-5-0.2-7.3-0.4c-4.9-0.4-7.1-0.6-8.4-0.7c-0.5,0-0.7,0.2-0.7,0.5c-0.1,1.3,3.6,0.5,3.4,3.5
		l-1.1,15.6c-0.3,4.1-2.6,2.1-2.7,3.6c0,0.2,0.2,0.4,0.6,0.4c1.8,0.1,3.1,0.1,4.1,0.2c1.6,0.1,3.5,0.4,8.3,0.7
		c2.6,0.2,4.7-2.4,4.8-5c0-0.6-0.2-0.8-0.3-0.8c-1.2-0.1-1.1,4.3-8.9,3.8c-2.3-0.2-2.1-1.4-1.9-3.4l0.3-4.3c0.1-1.9,0-2.3,1.5-2.2
		l2.3,0.2c3.3,0.2,2.2,3.7,3.2,3.8c0.8,0.1,0.7-1.2,0.7-1.6l0.2-6c0-0.9-0.3-0.9-0.6-0.9c-0.6,0-0.9,3-3.7,2.8l-2-0.1
		c-1.4-0.1-1.4-0.3-1.3-1.8L306.9,331.9z"/>
	<path class="st0" d="M323.8,348c0.3,3.4-2.8,3.1-2.7,4.4c0,0.6,0.7,0.3,1,0.3c0.9-0.1,1.7-0.3,2.7-0.4c1.1-0.1,2.2-0.1,3.8-0.2
		c0.4,0,1.2-0.1,1.2-0.5c-0.1-1.6-4,1.1-4.6-5.4l-1-11.3c0-0.3,0-0.5,0.2-0.6c0.1,0,0.4,0.1,0.6,0.4l16.8,16
		c0.2,0.2,0.4,0.4,0.9,0.4c0.4,0,0.4-0.3,0.3-1l-1.6-18.7c-0.3-3.5,2.5-2.9,2.4-3.9c0-0.1,0-0.4-0.6-0.4c-0.3,0-1.4,0.3-3.4,0.4
		c-2.2,0.2-3.1,0.1-3.6,0.2c-0.4,0-0.5,0.4-0.5,0.6c0.1,1.1,3.9,0.2,4.2,3.2l1,11.1c0.1,0.8,0.1,1.2-0.1,1.3c-0.2,0-0.6-0.4-1.1-0.8
		l-14-13.6c-0.6-0.6-0.3-0.8-1.3-0.8c-1.7,0.1-2.5,0.4-3.3,0.4c-0.6,0.1-1.2,0-1.8,0c-0.4,0-0.5,0.3-0.5,0.6
		c0.1,1.6,3.5-0.9,4.1,5.5L323.8,348z"/>
	<path class="st0" d="M363.2,322.4c-0.1-0.2-0.3-0.1-0.4-0.1c-0.4,0.1-0.1,1.2-0.7,1.4c-0.9,0.3-3.9-1-7.5,0.2
		c-7.7,2.3-8.6,10.4-7,15.8c0.8,2.5,4.7,10.3,13.6,7.6c6.5-2,8.2-7.8,7.8-9.1c-0.1-0.2-0.4-0.3-0.5-0.2c-0.8,0.3-1.6,5.1-6.3,6.5
		c-5.8,1.8-10.2-3.8-11.6-8.3c-1.3-4.3-0.2-9.5,4.3-10.9c3.5-1.1,7.1,0.9,9.5,3.5c0.4,0.3,0.8,1,1.3,0.8c0.5-0.2,0.2-0.9,0-1.2
		L363.2,322.4z"/>
	<path class="st0" d="M372.4,320.4c-1.5-2.8,1.2-2.9,0.6-3.9c-0.2-0.4-0.4-0.3-1.2,0.1c-1.6,0.8-2.5,1.5-3.6,2c-1,0.5-2.1,1-3.2,1.6
		c-0.2,0.1-1,0.4-0.7,0.9c0.5,1,3.3-1.5,4.7,1.2l7.6,14.2c1.5,2.8-0.9,3.1-0.4,4.2c0.1,0.1,0.2,0.3,0.5,0.2c0.7-0.4,1.9-1.2,3.1-1.8
		c2.2-1.2,3.3-1.6,4.3-2.2c0.6-0.3,0.8-0.6,0.7-0.9c-0.5-1-2.9,2.1-4.9-1.5L372.4,320.4z"/>
	<path class="st0" d="M190.2,203c-1.9-0.9-1.6-2-2.4-2.1c-0.6-0.1-0.5,0.3-0.6,0.9c-0.1,0.8,0,1.5-0.1,2.3c-0.1,0.8-0.3,1.5-0.4,2.3
		c0,0.3-0.2,1.1,0.4,1.2c1.2,0.1,0.2-2.7,3.3-2.4c0.5,0.1,1.7,0.2,3.9,1.3l9.8,4.7c0.2,0.1,0.7,0.3,0.7,0.4c0,0.2-0.5,0.3-0.8,0.3
		l-11.1,2.4c-2.1,0.5-3.7,0.7-4.7,0.6c-1.4-0.1-0.7-1.7-1.6-1.8c-0.6-0.1-0.6,0.1-0.6,0.9c0,0.4,0,1.2-0.2,2.9
		c-0.1,0.9-0.3,1.8-0.4,2.7c0,0.4-0.4,1.2,0.4,1.3c0.2,0,0.5-0.3,0.5-0.4c0.4-1.1,0.8-1.4,2.2-1.7l20.2-4.7c1.5-0.3,1.8-0.6,1.8-0.8
		c0-0.3-0.1-0.4-1-0.8L190.2,203z"/>
	<path class="st0" d="M206.1,200.8c3.3,0.8,2.2,3.1,3.5,3.4c0.6,0.1,0.5-0.4,0.6-0.7c0.2-0.7,0.2-1.4,0.4-2.3c0.2-0.9,0.5-1.8,0.8-3
		c0.1-0.3,0.3-1-0.2-1.1c-1.5-0.4-0.1,3.5-6.4,2.1l-11.1-2.6c-0.3-0.1-0.5-0.2-0.5-0.3c0-0.1,0.2-0.2,0.5-0.4l19.9-8.6
		c0.3-0.1,0.5-0.2,0.6-0.6c0.1-0.3-0.2-0.4-0.9-0.5l-18.3-4.2c-3.4-0.8-2.1-2.8-3.1-3.1c-0.1,0-0.4-0.1-0.5,0.4
		c-0.1,0.2-0.1,1.2-0.5,2.8c-0.4,1.8-0.7,2.5-0.8,2.9c-0.1,0.3,0.2,0.5,0.5,0.5c1.1,0.3,1.2-3.1,4.2-2.4l10.9,2.5
		c0.8,0.2,1.2,0.3,1.2,0.5c0,0.2-0.5,0.4-1,0.6l-16.8,7.2c-0.7,0.3-0.9,0-1.1,0.8c-0.3,1.4-0.3,2.1-0.5,2.8
		c-0.1,0.5-0.4,0.9-0.5,1.4c-0.1,0.3,0.2,0.5,0.5,0.6c1.6,0.4,0.1-3.1,6.4-1.6L206.1,200.8z"/>
	<path class="st0" d="M197.5,172.7c-3-1-1.3-2.5-2.3-2.9c-0.4-0.1-0.5,0-0.7,0.8c-0.5,1.5-0.6,2.4-0.9,3.3c-0.3,0.9-0.7,1.8-1.1,2.8
		c-0.1,0.2-0.4,0.8,0.2,1c1.1,0.4,1.2-2.8,4.1-1.9l15.3,5c3,1,1.6,2.5,2.7,2.9c0.2,0.1,0.4,0.1,0.5-0.1c0.2-0.7,0.4-1.8,0.8-2.9
		c0.6-2,1.1-2.9,1.4-3.8c0.2-0.6,0.1-0.9-0.2-1c-1-0.3-0.5,3-4.4,1.7L197.5,172.7z"/>
	<path class="st0" d="M205,153.6c-1.5-1.5-0.9-2.4-1.6-2.7c-0.5-0.2-0.6,0.1-0.8,0.7c-0.3,0.7-0.5,1.4-0.8,2.1
		c-0.3,0.7-0.7,1.3-1.1,2.1c-0.1,0.3-0.5,1,0,1.2c1.1,0.5,1-2.5,3.9-1.2c0.5,0.2,1.5,0.7,3.3,2.4l7.8,7.5c0.2,0.2,0.6,0.5,0.5,0.6
		c-0.1,0.1-0.6,0.1-0.8,0.1l-11.3-1.2c-2.1-0.2-3.7-0.5-4.6-1c-1.3-0.6-0.2-1.8-1-2.2c-0.5-0.2-0.6-0.1-0.9,0.7
		c-0.2,0.4-0.4,1.2-1.1,2.7c-0.4,0.8-0.9,1.6-1.2,2.4c-0.2,0.4-0.7,1,0,1.4c0.2,0.1,0.5-0.1,0.6-0.2c0.8-0.9,1.3-1.1,2.6-0.9
		l20.5,1.8c1.5,0.1,1.9,0,2-0.2c0.1-0.3,0-0.5-0.7-1.1L205,153.6z"/>
	<path class="st0" d="M210.7,146.7c-1.9-1.3-1.9-1.4-0.1-4.1c2.8-4.3,5-0.5,5.7-1.5c0.3-0.5-0.7-1-1.1-1.2l-2.8-1.7
		c-0.2-0.2-0.6-0.2-0.8,0.1c-1.3,2-2.2,3.6-3.2,5.2c-2.2,3.4-3.4,5-4,5.9c-0.2,0.3-0.1,0.6,0.2,0.8c1.1,0.7,1.9-2.4,4.4-0.8
		l13.2,8.5c3.4,2.2,0.8,2.9,2.1,3.8c0.2,0.1,0.4,0.1,0.6-0.2c0.8-1.2,1.3-2.3,1.8-2.9c0.7-1.1,1.7-2.4,3.9-5.8
		c1.2-1.8-0.2-4.7-2.4-6.1c-0.5-0.4-0.7-0.2-0.8-0.2c-0.6,0.9,3.3,2.9-0.3,8.5c-1.1,1.6-2,0.9-3.8-0.3l-3.6-2.3
		c-1.6-1.1-2-1.2-1.4-2.2l1.1-1.7c1.5-2.3,4.1,0.2,4.6-0.5c0.4-0.5-0.8-1.1-1.1-1.3l-5.1-3.1c-0.8-0.5-0.9-0.2-1,0
		c-0.3,0.4,2.2,2.2,1,4.1l-0.9,1.4c-0.6,1-0.8,0.8-2,0.1L210.7,146.7z"/>
	<path class="st0" d="M244,133.8c0.6,0.5,0.8,0.8,1.4,0.5c1.5-0.7,3-0.9,4.3-2c2.7-2.3,2.7-6.1-0.2-9.5c-2.7-3.3-5-3.2-8.2-2.6
		c-4,0.8-5.4,1.4-6.9-0.3c-1.4-1.7-1.3-3.5,0-4.6c3.5-3,7.8,1.6,8.3,1.2c0.4-0.4,0.3-0.7-0.3-1.3l-3.1-3.2c-0.5-0.6-0.8-1-1.1-0.7
		c-0.3,0.2-0.4,1.1-0.7,1.3c-0.6,0.5-2.3,0.2-4,1.7c-2.4,2-2.2,5.5,0.2,8.5c2.3,2.7,4.3,2.7,6.9,2.2c4.8-1,6.4-1.7,8.2,0.5
		c1.7,2.1,1.5,4.3-0.1,5.7c-2.3,1.9-5.5,0.6-8.2-1.3c-0.4-0.3-0.6-0.5-0.9-0.2c-0.5,0.4,0.3,1,0.7,1.3L244,133.8z"/>
	<path class="st0" d="M247.6,108.4c-1.8-2.6,0.5-2.8-0.1-3.7c-0.2-0.3-0.4-0.3-1,0.2c-1.3,0.9-2,1.5-2.8,2.1c-0.8,0.5-1.7,1-2.6,1.6
		c-0.2,0.1-0.8,0.4-0.5,0.9c0.7,1,2.6-1.5,4.4,1l9.2,13.2c1.8,2.6-0.3,3,0.4,4c0.1,0.1,0.3,0.3,0.5,0.2c0.6-0.4,1.4-1.2,2.4-1.8
		c1.7-1.2,2.6-1.7,3.4-2.2c0.5-0.4,0.6-0.6,0.4-0.9c-0.6-0.9-2.2,2.1-4.6-1.3L247.6,108.4z"/>
	<path class="st0" d="M340.7,88.1c0.3-1.5,0.8-2.1,2-1.9c4.1,0.7,3.5,5.6,3.3,6.4c-0.2,0.8-1.1,4.5-4.3,4c-0.6-0.1-1-0.4-1.2-0.4
		c-0.3-0.1-0.4,0.3-0.5,0.6c0,0.1,0,1,2.5,1.4c3.1,0.6,6-1.5,6.8-5.7c0.9-4.8-2.1-7-5.5-7.6c-1.9-0.3-3.8-0.5-4.1-0.6
		c-2-0.4-3.4-0.7-3.6-0.8c-0.6-0.1-0.8,0.3-0.8,0.5c-0.2,1.2,2.8,0.4,2.2,3.9l-2.6,14.5c-0.7,4.1-2.7,3-2.9,4
		c-0.1,0.6,0.4,0.6,0.5,0.6c0.1,0,2.2,0.3,3.3,0.4c0.6,0.1,1.7,0.4,3.6,0.8c0.4,0.1,0.6,0.2,0.7-0.4c0.2-1.2-2.7-0.4-2-4.5
		L340.7,88.1z"/>
	<path class="st0" d="M364.5,103.5c-1.8,5.3-4.7,9-9.1,7.6c-4.6-1.5-3.9-8.6-2.3-13.3c1.6-4.6,4.4-8.5,8.7-7.1
		C365.1,91.8,366.9,96.5,364.5,103.5 M363,89.6c-6.1-2-11.2,2-13.6,9c-2.2,6.4-0.3,11.9,4.8,13.6c8.1,2.8,12.3-4.5,13.8-8.9
		C370.3,96.6,368,91.2,363,89.6"/>
	<path class="st0" d="M377.8,99.3c1.1-2.3,2.3-0.3,2.9-1.4c0.2-0.4,0.1-0.4-0.4-0.7c-0.4-0.2-0.7-0.2-2.8-1.3
		c-0.9-0.5-2.2-1.3-3.2-1.8c-0.5-0.3-0.9-0.1-1,0.1c-0.5,1,2.6,1.6,1.3,4.1l-7.2,14.1c-1.9,3.6-2.9,1.1-3.6,2.5
		c-0.1,0.2,0,0.4,0.3,0.6c1.3,0.7,2.4,1.1,3.1,1.4c1.2,0.6,2.6,1.5,6.2,3.3c2,1,4.6-0.7,5.8-3.1c0.3-0.6,0.2-0.7,0.1-0.8
		c-0.9-0.5-2.6,3.6-8.5,0.6c-1.7-0.9-1.1-1.9-0.1-3.8L377.8,99.3z"/>
	<path class="st0" d="M392.3,108.4c1.8-2.6,2.8-0.5,3.4-1.5c0.2-0.3,0.2-0.5-0.5-0.9c-1.3-0.9-2.1-1.3-2.9-1.8
		c-0.8-0.5-1.6-1.2-2.4-1.8c-0.2-0.1-0.7-0.6-1-0.1c-0.6,1,2.4,1.9,0.7,4.4l-9,13.3c-1.8,2.6-2.9,0.8-3.6,1.8
		c-0.1,0.1-0.2,0.4,0,0.5c0.6,0.4,1.6,0.9,2.6,1.6c1.7,1.2,2.5,1.8,3.3,2.4c0.5,0.3,0.8,0.4,1,0.1c0.6-0.9-2.7-1.3-0.4-4.7
		L392.3,108.4z"/>
	<path class="st0" d="M391.3,127.1c-2.5,3.1-3.8,0-4.7,1c-0.5,0.6-0.1,0.8,0.3,1.1c0.8,0.7,1.6,1.1,3,2.2c1.4,1.1,2,1.8,2.9,2.4
		c0.6,0.5,1,0.9,1.5,0.3c0.6-0.7-2.7-2.1-0.2-5.3l9.3-11.9c1-1.3,1.3-1.2,2.2-0.6l1.8,1.4c2.5,1.8-0.5,4.2,0.4,4.9
		c0.6,0.4,1.1-0.8,1.3-1.1l1.7-2.6c0.2-0.3,0.5-0.6,0.2-0.9c-2-1.5-3.5-2.5-6.5-4.9c-3.1-2.4-4.4-3.6-6.4-5.2
		c-0.3-0.3-0.6,0.1-0.8,0.4l-3.1,3.2c-0.3,0.3-0.9,0.8-0.4,1.1c1,0.7,3-3.2,5.4-1.3l1.8,1.4c0.9,0.7,1,1,0,2.2L391.3,127.1z"/>
	<path class="st0" d="M414.4,127.4c1.7-1.6,1.8-1.5,4,0.8c3.5,3.8-0.8,4.9,0.1,5.9c0.4,0.4,1.1-0.4,1.4-0.7l2.4-2.3
		c0.2-0.2,0.3-0.6,0.1-0.8c-1.6-1.7-3-3-4.3-4.4c-2.8-3-4-4.5-4.8-5.3c-0.3-0.3-0.6-0.3-0.8-0.1c-1,0.9,1.9,2.4-0.3,4.5l-11.5,10.7
		c-3,2.8-3.1,0.1-4.2,1.1c-0.1,0.1-0.2,0.4,0.1,0.6c1,1.1,1.9,1.8,2.4,2.4c0.9,1,1.9,2.2,4.7,5.2c1.5,1.6,4.6,0.9,6.5-0.9
		c0.5-0.4,0.4-0.6,0.3-0.7c-0.7-0.7-3.6,2.5-8.2-2.3c-1.3-1.4-0.4-2.2,1.2-3.6l3.1-2.9c1.4-1.3,1.6-1.7,2.5-0.8l1.4,1.4
		c1.9,2-1.2,3.9-0.6,4.5c0.4,0.5,1.2-0.5,1.5-0.8l4.2-4.2c0.6-0.6,0.4-0.8,0.3-0.9c-0.4-0.4-2.7,1.6-4.2,0l-1.2-1.2
		c-0.8-0.8-0.6-1,0.4-2L414.4,127.4z"/>
	<path class="st0" d="M434.2,148.2c0.1-0.1,0.1-0.3,0-0.4c-0.2-0.3-1.1,0.3-1.4-0.1c-0.5-0.7,0.1-3.5-1.7-6.2
		c-3.8-5.6-11.5-3.8-16.1-0.6c-2.2,1.5-8.6,7.3-4.2,13.8c3.2,4.7,9,4.3,10.1,3.5c0.2-0.1,0.2-0.4,0.1-0.5c-0.4-0.6-5.1,0.4-7.4-3.1
		c-2.9-4.2,1.4-9.7,5.4-12.4c3.7-2.5,8.8-3.3,11-0.1c1.7,2.6,0.6,6.2-1.3,9.1c-0.3,0.4-0.7,1-0.5,1.3c0.3,0.4,0.8-0.1,1.1-0.3
		L434.2,148.2z"/>
	<path class="st0" d="M420.8,161.4c-3.1,1.4-3.6-1.1-4.8-0.6c-0.5,0.2-0.1,0.7,0,0.9c0.3,0.7,0.7,1.3,1.1,2c0.4,0.8,0.7,1.7,1.2,2.9
		c0.1,0.3,0.4,0.9,0.8,0.7c1.4-0.7-2.1-2.8,3.7-5.5l10.3-4.8c0.3-0.1,0.5-0.2,0.6,0c0.1,0.1,0,0.3-0.2,0.6l-10.3,19
		c-0.2,0.3-0.3,0.5-0.1,0.8c0.1,0.3,0.4,0.2,1-0.1l17-7.9c3.2-1.5,3.4,0.9,4.3,0.5c0.1-0.1,0.4-0.2,0.2-0.6c-0.1-0.2-0.6-1-1.3-2.5
		c-0.8-1.7-1-2.4-1.2-2.8c-0.1-0.3-0.5-0.2-0.7-0.1c-1,0.5,0.9,3.2-1.8,4.5l-10.1,4.7c-0.8,0.4-1.2,0.5-1.2,0.3
		c-0.1-0.1,0.2-0.6,0.4-1.1l8.8-16c0.4-0.7,0.7-0.5,0.4-1.3c-0.6-1.3-1-1.9-1.3-2.5c-0.2-0.5-0.3-1-0.5-1.4
		c-0.1-0.3-0.4-0.3-0.7-0.2c-1.5,0.7,1.8,2.5-4,5.2L420.8,161.4z"/>
	<path class="st0" d="M444.7,179.1c3-1,2.5,1.3,3.6,1c0.4-0.1,0.4-0.3,0.2-1c-0.5-1.5-0.9-2.3-1.2-3.2c-0.3-0.9-0.5-1.9-0.8-2.9
		c-0.1-0.2-0.2-0.9-0.7-0.7c-1.1,0.4,0.7,2.9-2.2,3.9l-15.3,5c-3,1-2.8-1.1-3.9-0.8c-0.2,0.1-0.4,0.2-0.3,0.4
		c0.2,0.7,0.7,1.7,1.1,2.8c0.6,2,0.8,3,1.1,3.9c0.2,0.6,0.4,0.8,0.8,0.7c1-0.3-1.4-2.7,2.5-4L444.7,179.1z"/>
	<path class="st0" d="M451.9,199c0.2,0,0.2-0.2,0.1-0.3c-0.1-0.4-1.2-0.2-1.3-0.7c-0.1-0.8,1.5-3.2,1-6.4c-1.2-6.7-9-8.1-14.5-7.1
		c-2.6,0.5-10.8,3.1-9.5,10.9c1,5.6,6.5,7.5,7.8,7.3c0.2,0,0.3-0.3,0.3-0.4c-0.1-0.7-4.8-1.7-5.5-5.8c-0.9-5,5.3-8.3,9.9-9.1
		c4.4-0.8,9.4,0.5,10.1,4.4c0.6,3.1-1.9,5.9-4.8,7.8c-0.4,0.3-1.1,0.6-1,1c0.1,0.4,0.8,0.2,1.1,0.1L451.9,199z"/>
	<path class="st0" d="M260.1,283.4c-0.9,0.6-0.9,0.6-1.9-0.7c-1.6-2.2,0.5-2.4,0.1-2.9c-0.2-0.3-0.6,0.1-0.7,0.2l-1.2,1
		c-0.1,0.1-0.2,0.3-0.1,0.4c0.8,1,1.4,1.7,2,2.5c1.3,1.7,1.9,2.6,2.2,3c0.1,0.2,0.3,0.2,0.4,0.1c0.5-0.4-0.9-1.3,0.3-2.2l5.8-4.4
		c1.5-1.1,1.5,0.2,2.1-0.2c0.1-0.1,0.1-0.2,0-0.3c-0.5-0.6-0.9-1.1-1.1-1.4c-0.4-0.6-0.9-1.3-2.2-3c-0.7-0.9-2.2-0.8-3.2-0.1
		c-0.2,0.2-0.2,0.3-0.2,0.3c0.3,0.4,1.8-1,3.9,1.8c0.6,0.8,0.1,1.1-0.6,1.7l-1.6,1.2c-0.7,0.6-0.8,0.7-1.2,0.2l-0.6-0.8
		c-0.9-1.2,0.7-1.8,0.4-2.2c-0.2-0.3-0.6,0.1-0.8,0.3l-2.2,1.8c-0.3,0.3-0.2,0.4-0.1,0.4c0.2,0.2,1.3-0.6,2.1,0.4l0.5,0.7
		c0.4,0.5,0.3,0.6-0.3,1L260.1,283.4z"/>
	<path class="st0" d="M262.8,273.8c1,0,1.5,0.6,1.8,0.4c0.2-0.1,0-0.3-0.2-0.5c-0.3-0.4-0.6-0.7-0.9-1.1c-0.2-0.3-0.4-0.7-0.8-1.2
		c-0.2-0.2-0.3-0.3-0.4-0.2c-0.4,0.3,0.7,1.1,0,1.6c-0.2,0.1-0.6,0.2-1.2,0.3l-2,0.1c-0.5,0-0.7,0.1-0.8,0c0-0.1,0.1-0.3,0.2-0.7
		l0.8-2.2c0.1-0.4,0.2-0.6,0.5-0.8c0.5-0.4,0.8,0.4,1.1,0.1c0.2-0.2,0-0.3-0.1-0.5c-0.3-0.3-0.6-0.7-1-1.3c-0.4-0.5-0.6-0.8-0.8-1.1
		c-0.4-0.5-0.5-0.6-0.6-0.4c-0.3,0.2,0.3,0.7-0.4,2.3l-1.4,3.8c-0.2,0.4-0.2,0.6-0.4,0.8c-0.1,0.1-0.5,0.1-0.9,0.1l-2.9,0.1
		c-1.8,0.1-2.1-0.8-2.4-0.6c-0.1,0.1-0.1,0.2,0,0.4c0.4,0.6,0.7,0.8,1,1.2c0.2,0.3,0.4,0.7,0.8,1.2c0,0,0.1,0.2,0.4,0.1
		c0.3-0.2-0.5-1,0.1-1.4c0.2-0.2,0.5-0.2,1.3-0.3l2-0.1c0.2,0,0.4,0,0.5,0c0.1,0.1,0,0.2-0.1,0.4l-1.1,2.5c-0.1,0.2-0.2,0.4-0.3,0.5
		c-0.5,0.3-0.9-0.4-1.2-0.1c-0.1,0.1-0.2,0.1,0,0.4c0.2,0.3,0.5,0.5,1.1,1.4c0.6,0.8,0.9,1.3,1.1,1.5c0.2,0.2,0.2,0.2,0.4,0.1
		c0.5-0.4-0.5-0.5,0.5-3.1l1.1-2.7c0.1-0.3,0.3-0.8,0.4-0.9c0.1-0.1,0.4-0.1,0.7-0.1L262.8,273.8z"/>
	<path class="st0" d="M305.2,130.4c1.8,0,3.2,1.4,3.2,3.2c0,1.7-1.4,3.2-3.2,3.2c-1.7,0-3.2-1.4-3.2-3.2
		C302,131.9,303.4,130.4,305.2,130.4"/>
	<path class="st0" d="M276.7,136.8c1.7,0,3.2,1.4,3.2,3.2c0,1.8-1.4,3.2-3.2,3.2c-1.8,0-3.2-1.4-3.2-3.2
		C273.5,138.2,275,136.8,276.7,136.8"/>
	<path class="st0" d="M370.5,148.7c-0.8,1.8-1.6,2.1-4.6,1.6c-2.5-0.4-2.4-3.7-2.3-5.1l-4.2-1.2c-1.8,3.6-4,3.8-5.6,3.6
		c-3-0.4-3.2-5.4-3-8.4l-4.3-0.9c-2.1,5.9-3,6.9-5.7,7.3c-1.5,0.3-2.6-0.7-3.1-1.3c-0.9-1-1.5-2.4-1.5-3.7c0.1-0.6,0.2-1.3,0.2-2
		l-4.4-0.7c-0.2,0.7-0.3,1.5-0.3,2.3c-0.4,1.7-1.2,3.2-2.2,4c-0.7,0.5-1.5,0.7-2.3,0.4c-2.1-0.6-4.9-2.3-4.9-10.6h-4.5
		c0,0.3,0,0.5,0,0.8h0c0,6-1.5,8.9-4.9,9.8c-0.9,0.2-1.7,0-2.5-0.6c-1.1-0.9-1.9-2.4-2.2-4c0-0.7,0-1.3-0.2-1.9l-4.4,0.3
		c0,0.6,0,1.3,0.1,1.9c-0.1,1.5-0.8,3.2-1.8,4.2c-0.8,0.8-1.8,1.2-2.8,1c-2.7-0.5-4-1.7-6.1-7.5l-4.3,0.9c0.2,3.1,0.1,8.3-2.7,8.7
		c-1.6,0.2-3.4-0.1-5.5-4.3l-4.2,1.2c0.3,2.8-0.8,5.6-2.4,6c-2.8,0.7-2.8,0.7-4.2-1.6l-0.4-0.6l-3.9,2.3l0.4,0.6
		c2,3.5,3.6,5,9.1,3.6c2.5-0.6,4.1-2.5,5-4.8c1.9,1.7,4.1,2.3,6.7,2c2.2-0.3,4.6-1.6,5.9-5.4c1.4,1.7,3.3,2.8,5.9,3.3
		c2.5,0.5,4.9-0.3,6.7-2.2c0.4-0.4,0.8-0.9,1.2-1.4c0.4,0.5,0.9,1,1.4,1.3c1.9,1.5,4.1,2,6.4,1.4c3-0.8,4.9-2.5,6.1-4.4
		c1.4,2.2,3.3,3.7,5.9,4.4c2.2,0.6,4.3,0.2,6.1-1.2c0.6-0.4,1.1-0.9,1.5-1.5c0.2,0.3,0.5,0.6,0.8,0.9c2,2.2,4.6,3.1,7.2,2.6
		c2.6-0.5,4.3-1.5,5.6-3.1c1.4,3.8,4.1,4.8,6,5.1c2,0.3,4.4,0.1,6.7-1.6c1,2.3,2.8,3.9,5.3,4.3c2.3,0.4,7.2,1.3,9.5-4.2L370.5,148.7
		z"/>
	<path class="st0" d="M334.2,130.6c1.8,0,3.2,1.4,3.2,3.2c0,1.8-1.4,3.2-3.2,3.2c-1.8,0-3.2-1.4-3.2-3.2
		C331.1,132,332.5,130.6,334.2,130.6"/>
	<path class="st0" d="M363.1,136.4c1.8,0,3.2,1.4,3.2,3.2c0,1.7-1.4,3.2-3.2,3.2c-1.8,0-3.2-1.4-3.2-3.2
		C359.9,137.8,361.3,136.4,363.1,136.4"/>
</g>
<polygon class="st0" points="276.8,164.4 281.1,165.9 284.3,162.7 280.1,161.2 "/>
<g>
	<path class="st0" d="M269.3,161.8c19.1-6.1,30.5-7.9,50.8-7.8c20.4,0,31.9,1.8,50.9,7.8c0,0,1.6,0.4,2.2-1.5
		c0.6-1.9-0.9-2.6-0.9-2.6c-19.3-6.2-31.5-8-52.2-8c-20.5,0-32.7,1.9-52,8c0,0-1.5,0.6-0.9,2.5C267.7,162.2,269.3,161.8,269.3,161.8
		"/>
	<path class="st0" d="M273.4,174.2c1.7-0.4,3.5-0.8,5.4-1.2c9.5-2.2,21.3-4.9,41.1-4.9c16.4,0,27.6,2.2,41.7,5.1l5.2,1.1
		c0,0,1.6,0.2,2-1.7c0.4-1.9-1.2-2.5-1.2-2.5l-5.2-1.1c-14.3-2.9-25.6-5.2-42.5-5.1c-20.3,0-32.3,2.8-42,5c-1.9,0.4-3.6,0.8-5.3,1.2
		c0,0-1.5,0.6-1.1,2.5C271.8,174.4,273.4,174.2,273.4,174.2"/>
</g>
<polygon class="st0" points="302.5,159.5 306.6,161.7 310.5,159 306.3,156.8 "/>
<g>
	<path class="st0" d="M371,167.3c0.8-2-0.4-4.8-0.4-4.8c-1.5-0.5-4.4-0.2-5.1,1.8c-0.8,2.2,0,3.9,2.4,5.3
		C367.9,169.7,369.4,169.1,371,167.3"/>
</g>
<polygon class="st0" points="355.7,162.7 358.9,165.9 363.2,164.4 359.8,161.2 "/>
<polygon class="st0" points="329.3,159 333.2,161.7 337.2,159.5 333.5,156.8 "/>
<g>
	<path class="st0" d="M352.9,161.8c0.3-2.2-2.1-3.9-5.5-4.4c-3.4-0.5-6.3,0.3-6.7,2.5c-0.4,2.2,2,3.9,5.4,4.4
		C349.5,164.8,352.6,164.1,352.9,161.8"/>
	<path class="st0" d="M394.6,172.9c0.6-0.4,1-0.4,1.4,0.2c1.1,1.9-0.9,3.2-1.3,3.4c-0.4,0.2-2,1.1-2.9-0.4c-0.2-0.3-0.2-0.5-0.3-0.6
		c-0.1-0.1-0.3-0.1-0.4,0c0,0-0.4,0.3,0.3,1.5c0.8,1.4,2.6,1.9,4.4,0.8c2.1-1.2,1.9-3.2,0.9-4.7c-0.5-0.8-1.1-1.7-1.2-1.8
		c-0.6-0.9-0.9-1.6-0.9-1.7c-0.2-0.3-0.4-0.2-0.5-0.2c-0.5,0.3,0.8,1.2-0.7,2.1l-6.2,3.7c-1.8,1.1-2-0.1-2.4,0.2
		c-0.2,0.1-0.1,0.4-0.1,0.4c0,0.1,0.6,1,0.9,1.4c0.2,0.3,0.4,0.8,0.9,1.7c0.1,0.2,0.1,0.3,0.4,0.2c0.5-0.3-0.8-1.2,1-2.2
		L394.6,172.9z"/>
	<path class="st0" d="M407.8,207.9c0.3,0,0.6-0.1,0.6-0.3c0-0.2-0.5-0.2-0.5-0.5c-0.1-0.4,0.8-1.7,0.6-3.6c-0.5-3.5-4.3-4.4-7-4
		c-1.3,0.2-5.4,1.4-4.8,5.4c0.2,1.5,1.2,2.9,2.2,4.1c0.1,0.1,0.2,0.1,0.4,0.1c0.2,0,0.7-0.1,1.3-0.2c2.1-0.3,1.3,0.8,2,0.7
		c0.2,0,0.2-0.1,0.2-0.2c-0.1-0.5-0.2-1-0.3-1.5c-0.1-0.6-0.1-1.3-0.2-2c0-0.2,0-0.7-0.4-0.6c-0.6,0.1,0.7,1.6-1.8,1.9
		c-0.9,0.1-2.3,0.3-2.7-2.2c-0.3-2.2,2.5-3.6,4.8-3.9c4.1-0.6,5.4,1.1,5.6,2.4c0.5,3.6-3,4.1-3,4.4c0,0.3,0.1,0.3,0.4,0.3
		L407.8,207.9z"/>
	<path class="st0" d="M406.5,223.5c1.1,0.1,1.1,0.2,1,1.9c-0.3,2.7-2.1,1.4-2.2,2c0,0.3,0.5,0.3,0.7,0.3l1.6,0.1
		c0.1,0,0.3-0.1,0.3-0.3c0.1-1.2,0.2-2.2,0.3-3.2c0.2-2.1,0.4-3.1,0.4-3.7c0-0.2-0.1-0.3-0.2-0.3c-0.7-0.1-0.3,1.6-1.8,1.4L399,221
		c-2-0.2-1-1.2-1.8-1.3c-0.1,0-0.2,0.1-0.2,0.2c-0.1,0.8-0.1,1.4-0.1,1.8c-0.1,0.7-0.2,1.5-0.5,3.6c-0.1,1.1,1.1,2.1,2.4,2.2
		c0.3,0,0.4-0.1,0.4-0.1c0.1-0.5-2.1-0.6-1.8-4c0.1-1,0.7-0.9,1.7-0.8l2.1,0.2c1,0.1,1.2,0.1,1.1,0.7l-0.1,1
		c-0.1,1.4-1.8,0.9-1.9,1.3c0,0.3,0.6,0.3,0.8,0.3l2.9,0.2c0.5,0,0.4-0.1,0.4-0.2c0-0.3-1.5-0.5-1.4-1.7l0.1-0.9
		c0.1-0.6,0.2-0.6,0.9-0.5L406.5,223.5z"/>
	<path class="st0" d="M397.2,228.3c-0.4,0-0.5-0.1-0.7,0.3c-0.4,0.7-0.9,1.4-1.1,2.2c-0.4,1.8,0.8,3.3,3,3.8c2.1,0.4,2.9-0.4,4-1.7
		c1.3-1.7,1.7-2.4,2.8-2.2c1.1,0.2,1.6,1,1.4,1.8c-0.5,2.4-3.5,2-3.6,2.3c-0.1,0.3,0.1,0.4,0.5,0.4l2.2,0.3c0.4,0,0.6,0.1,0.7-0.1
		c0-0.2-0.2-0.6-0.1-0.7c0.1-0.4,0.8-0.9,1-2c0.3-1.6-0.8-3-2.7-3.3c-1.7-0.3-2.5,0.4-3.3,1.4c-1.6,2-2,2.8-3.3,2.5
		c-1.3-0.2-1.9-1.2-1.7-2.3c0.3-1.5,1.9-2.1,3.6-2.2c0.2,0,0.4,0,0.4-0.2c0.1-0.4-0.4-0.3-0.7-0.3L397.2,228.3z"/>
	<path class="st0" d="M395.6,235.3c-0.4-0.1-0.5-0.1-0.7,0.2c-0.5,0.7-1.1,1.3-1.3,2.1c-0.6,1.7,0.4,3.4,2.5,4.1
		c2,0.6,2.9,0,4.1-1.2c1.5-1.5,1.9-2.1,3-1.8c1.1,0.3,1.5,1.1,1.2,2c-0.7,2.3-3.7,1.5-3.8,1.8c-0.1,0.3,0.1,0.4,0.4,0.5l2.2,0.5
		c0.4,0.1,0.6,0.2,0.7,0c0.1-0.2-0.1-0.6,0-0.8c0.1-0.4,0.9-0.8,1.3-1.8c0.5-1.5-0.5-3-2.3-3.6c-1.6-0.5-2.5,0.1-3.5,1
		c-1.8,1.8-2.3,2.5-3.6,2.1c-1.3-0.4-1.8-1.4-1.4-2.5c0.5-1.5,2.2-1.8,3.8-1.8c0.2,0,0.4,0,0.4-0.2c0.1-0.3-0.4-0.3-0.6-0.4
		L395.6,235.3z"/>
	<path class="st0" d="M400.8,247.2c1.5,0.5,0.6,1.3,1.1,1.5c0.2,0.1,0.2,0,0.4-0.4c0.3-0.7,0.4-1.2,0.6-1.7c0.2-0.5,0.4-1,0.6-1.5
		c0-0.1,0.2-0.4-0.1-0.5c-0.6-0.2-0.7,1.4-2.1,0.9l-7.4-2.7c-1.5-0.5-0.7-1.3-1.3-1.5c-0.1,0-0.2,0-0.2,0.1
		c-0.1,0.3-0.3,0.9-0.5,1.5c-0.4,1-0.6,1.5-0.8,2c-0.1,0.3-0.1,0.4,0.1,0.5c0.5,0.2,0.3-1.6,2.2-0.8L400.8,247.2z"/>
	<path class="st0" d="M399.7,253.5c-0.6,1.7-3,2.7-6.4,1.4c-2.6-0.9-4.4-2.4-3.6-4.7c0.8-2.4,4.3-2,6.6-1.2
		C398.6,249.8,400.5,251.2,399.7,253.5 M396.1,247c-3.2-1.1-5.9-0.1-6.9,2.5c-1.5,4.2,2,6.4,4.2,7.2c3.3,1.2,6,0,6.9-2.6
		C401.4,251,399.5,248.3,396.1,247"/>
	<path class="st0" d="M398.3,263.3l-14.8-9c14.2-31.8,13-57.5-3.5-78.6l16.8-10.7c9.5,13.8,15,30.9,15.5,48.2
		C412.7,231.3,407.9,248.6,398.3,263.3 M388.6,264.6c-0.8,1.3-1.9,3-2.7,4.1l-7.8-4.8l-0.9-0.5l0,0l0,0l0,0l0,0l-5.3,2.9
		c1.4-2.2,2.6-4.1,4-7c1.7-3.8,2.7-6.3,3.6-9.5l1.3,5.3l0.1,0l0,0.1l0.8,0.5l8.8,5.3C390.1,261.7,389.3,263.5,388.6,264.6
		 M389.6,273.4c-1.2,2.6-5.3,9.5-11.1,11.2c-3.9,1.2-4.2,1.1-7.3,0.7l-2.1-0.3c-0.5-0.2-0.8-0.3-1.1-0.4c-0.5-0.1-1-0.3-3-1.1
		c-0.2-0.1-0.3-0.2-0.3-0.3c-0.1-0.6,0.7-1.9,2-2.9l0.1,0l0,0l1.3-1.3c1.7-1.6,2.2-2.1,4.5-4.9c2-2.5,3.4-4.3,5.3-7.8L389.6,273.4z
		 M371.3,269l3.9-2.2c-0.9,1.5-1.7,2.6-2.5,3.8L371.3,269z M383.5,249.1c-0.4,1-0.8,2-1.3,3l-0.9-3.6L383.5,249.1z M380.5,202.7
		l-3-11.3l4.8,6l0.4,0.5l0.6-0.1l5.6-0.7c0.2,0.6,0.3,1.2,0.5,1.8L380.5,202.7z M380.5,180c3.3,4.8,5.9,9.8,7.7,15.1l-4.2,0.5
		L380.5,180z M379.8,186.2l1.4,6.3l-4-5L379.8,186.2z M414.4,213.2c-0.5-18.1-6.3-35.9-16.4-50.2l-0.9,0.6l-0.6-0.9l-18.6,11.9
		l-1,0.6l0.6,0.7l1.8,8.1l-4.2,2.2l-0.8,0.4l-0.1,0l0,0l-0.2,0.1l0.4,0.5l4.5,17.1l0.3,1.2l1.1-0.5l9.6-4.1
		c3,13.6,1.1,28.9-5.6,46.2l-4.2-1l-1.7-0.4l0,0.1l-0.1,0c-1.3,4.9-2.2,7.8-4.5,12.7c-1.5,3.2-2.8,5.1-4.5,7.8l-1.4,2.2l0.1,0.1
		l-0.1,0l0.9,1l2.6,2.9c-0.1,0.2-0.3,0.3-0.4,0.5c-2.2,2.7-2.6,3.1-4.3,4.7l-1.3,1.2c-1.9,1.4-2.9,3.3-2.8,4.8
		c0.1,0.9,0.7,1.6,1.6,2c2.1,0.8,2.7,1,3.3,1.2c0.3,0.1,0.5,0.1,1,0.3l0.1,0c0,0,0.1,0,0.1,0l2.2,0.3c3.4,0.5,4,0.6,8.2-0.7
		c8-2.4,12.7-12.8,12.8-13.5l-1-0.2l0.6-0.9l-3.8-2.3c0.8-1.1,1.9-2.8,2.7-4.1c0.7-1.1,1.5-2.8,1.8-3.6l5.9,3.6l0.9,0.5l0.6-0.8
		C409.7,250.1,414.9,232,414.4,213.2 M270.6,286c-1.5,1.3-2.9,2.4-5,3.1c-7,2.4-15.3-11.7-18.4-16.9l-0.1-0.1l13.1-8.5
		c2,3.6,4.7,7.7,7,10.5c2.7,3.3,3.2,4,4.8,6.6c0.8,1.3,1.1,2,1.5,3.3l0,0C272.3,284.6,271.4,285.3,270.6,286 M249.4,261l8.8-5.3
		l0.8-0.5l0-0.1l0.1,0l1.3-5.3c0.9,3.2,1.9,5.8,3.6,9.5c1.1,2.3,2,4,3.1,5.6l-6-4.2l0,0.1l-0.2-0.3l-1,0.6l-7.7,5
		c-0.4-0.5-0.8-1-1-1.5C250.5,263.5,249.7,261.7,249.4,261 M241.4,263.3c-9.6-14.7-14.4-32-13.9-50.1c0.5-17.3,6-34.4,15.5-48.2
		l16.8,10.7c-16.6,21.1-17.7,46.8-3.5,78.6L241.4,263.3z M262.6,187.5l-4,5l1.4-6.3L262.6,187.5z M251.6,195
		c1.8-5.3,4.3-10.3,7.7-15.1l-3.5,15.6L251.6,195z M259.2,202.7l-8.8-3.8c0.2-0.6,0.3-1.2,0.5-1.8l5.6,0.7l0.6,0.1l0.4-0.5l4.8-6
		L259.2,202.7z M258.5,248.6l-0.9,3.6c-0.4-1-0.9-2-1.3-3L258.5,248.6z M267,270.3c-1.2-1.7-2.5-3.6-3.6-5.4l5.2,3.6L267,270.3z
		 M275.4,283.2c-0.4-1.3-0.7-2.2-1.7-3.7c-1.6-2.7-2.2-3.4-4.9-6.8c-0.2-0.2-0.3-0.4-0.5-0.6l2.7-3l0.3-0.3l0.6-0.4l-0.1-0.2l0,0
		l0,0l-1.4-2.1c-1.7-2.5-3-4.5-4.4-7.7c-2.3-4.9-3.2-7.7-4.5-12.7l-0.1,0l0-0.1l-1.7,0.4l-4.2,1c-6.7-17.2-8.6-32.5-5.6-46.2
		l9.6,4.1l1.1,0.5l0.3-1.2l4.5-17l0.4-0.5l-0.2-0.1v0l0,0l-0.9-0.4l-4.2-2.2l1.8-8.1l0.6-0.7l-1-0.6l-18.6-11.9l-0.6,0.9l-0.9-0.6
		c-10.1,14.3-16,32.1-16.4,50.2c-0.5,18.9,4.6,36.9,14.8,52.2l0.6,0.8l0.9-0.5l5.9-3.6c0.4,0.9,1.2,2.5,1.8,3.6
		c0.3,0.5,0.7,1.1,1.1,1.6l-5.4,3.5l0.6,0.9l-0.9,0.5l0.6,1c3.7,6.2,12.3,20.8,20.9,17.9c2.5-0.8,4.1-2.2,5.7-3.5
		c1-0.8,2-1.6,3.2-2.4l0.7-0.4c0,0-0.3-0.8-0.3-0.8L275.4,283.2z"/>
	<path class="st0" d="M326.3,158.9c0-2.3-2.6-3.6-6-3.6c-3.4-0.1-6.2,1.1-6.3,3.4c0,2.3,2.5,3.5,5.9,3.6
		C323.4,162.3,326.3,161.1,326.3,158.9"/>
	<path class="st0" d="M286.7,161.8c-0.4-2.2,2.1-3.9,5.5-4.4c3.4-0.5,6.3,0.3,6.7,2.5c0.4,2.2-2,3.9-5.4,4.4
		C290.1,164.8,287.1,164.1,286.7,161.8"/>
	<path class="st0" d="M247.5,248.2c1.7-0.8,1.7,0.9,2.2,0.7c0.3-0.1,0.2-0.4,0.1-0.6c-0.2-0.5-0.5-0.9-0.9-1.7
		c-0.4-0.8-0.6-1.3-0.8-1.8c-0.2-0.4-0.3-0.6-0.6-0.5c-0.4,0.2,0.8,1.6-0.9,2.5l-6.4,3.1c-0.7,0.3-0.8,0.2-1.1-0.3l-0.5-1.1
		c-0.8-1.4,1-1.8,0.7-2.3c-0.2-0.3-0.6,0.1-0.8,0.2l-1.2,0.8c-0.1,0.1-0.3,0.2-0.2,0.4c0.6,1.2,1.1,2,1.9,3.8
		c0.9,1.8,1.3,2.7,1.8,3.9c0.1,0.2,0.3,0.1,0.4,0l2-0.7c0.2-0.1,0.5-0.1,0.4-0.4c-0.3-0.6-1.9,0.7-2.6-0.7l-0.5-1.1
		c-0.3-0.5-0.2-0.7,0.4-1L247.5,248.2z"/>
	<path class="st0" d="M236.5,240.7c-1,0.3-1.1,0.2-1.5-1.4c-0.8-2.6,1.3-2.1,1.1-2.7c-0.1-0.3-0.6-0.1-0.8,0l-1.5,0.5
		c-0.1,0-0.3,0.2-0.2,0.3c0.3,1.2,0.7,2.1,0.9,3.1c0.6,2.1,0.8,3.1,1,3.6c0.1,0.2,0.2,0.3,0.4,0.2c0.6-0.2-0.3-1.6,1-2l7-2
		c1.8-0.5,1.3,0.7,2,0.5c0.1,0,0.1-0.1,0.1-0.3c-0.2-0.7-0.4-1.3-0.6-1.7c-0.2-0.7-0.4-1.5-1-3.6c-0.3-1.1-1.8-1.6-2.9-1.2
		c-0.3,0.1-0.3,0.2-0.3,0.2c0.2,0.5,2.1-0.2,3,3.1c0.3,1-0.3,1.1-1.2,1.3l-1.9,0.6c-0.9,0.2-1,0.4-1.2-0.3l-0.3-1
		c-0.4-1.4,1.3-1.5,1.2-1.9c-0.1-0.3-0.6-0.1-0.8,0l-2.7,0.9c-0.4,0.1-0.3,0.3-0.3,0.4c0.1,0.3,1.5-0.1,1.8,1.1l0.2,0.9
		c0.2,0.6,0.1,0.6-0.6,0.8L236.5,240.7z"/>
	<path class="st0" d="M236.2,233.2c1.8-0.3,2.9-1.6,2.7-3.2c-0.2-1.4-1.6-2.4-2-2.3c-0.2,0-0.2,0.1-0.2,0.2c0,0.2,1,0.8,1.1,1.6
		c0.2,1.3-1.3,2.3-2.8,2.5c-1,0.2-2.1,0.1-2.3-1c-0.1-0.7,0.4-1.1,1.1-1.3c0.1,0,0.2-0.1,0.2-0.2c0-0.2-0.8-0.9-1.1-0.9
		c-0.9,0.1-1,1.5-0.9,1.9C232.3,232.3,234.1,233.5,236.2,233.2"/>
	<path class="st0" d="M232.9,215.3c-1.5,0-0.9-1-1.5-1c-0.1,0-0.2,0.1-0.2,0.3c0,0.6,0.1,1.1,0.1,1.9c0,0.9-0.1,1.2-0.1,1.8
		c0,0.2,0,0.3,0.3,0.3c0.5,0-0.1-1.5,1.6-1.5h2.2c0.4,0,0.7,0.1,0.7,0.5v4.2c0,0.3-0.2,0.4-0.6,0.4h-2.5c-1.4,0-0.9-1.1-1.4-1.1
		c-0.2,0-0.2,0.1-0.2,0.3c0,0.4,0.1,1,0.1,1.8c0,0.7-0.1,1.1-0.1,1.6c0,0.3,0,0.7,0.3,0.7c0.6,0-0.1-1.6,1.6-1.6h7
		c1.9,0,1.4,1.2,2,1.2c0.2,0,0.2-0.1,0.2-0.3c0-0.7-0.1-1.3-0.1-1.9c0-1,0.1-1.5,0.1-2c0-0.5-0.1-0.4-0.2-0.4c-0.6,0,0,1.8-1.9,1.8
		h-2.5c-0.7,0-0.8,0-0.8-0.7v-3.8c0-0.6,0.2-0.6,0.8-0.6h2.8c1.5,0,1.1,1,1.6,1c0.1,0,0.2-0.1,0.2-0.3c0-0.7-0.1-1.3-0.1-1.8
		c0-0.6,0.1-1.4,0.1-1.9c0-0.2,0-0.3-0.2-0.3c-0.6,0,0,1.5-2,1.5H232.9z"/>
	<path class="st0" d="M240.3,211.2c1.6,0.2,1.2,1.5,1.8,1.5c0.3,0,0.2-0.3,0.2-0.4c0-0.4,0-0.8,0.1-1.2c0-0.5,0.2-1,0.2-1.7
		c0-0.2,0.1-0.5-0.1-0.6c-0.7-0.1,0.1,1.8-2.9,1.5l-5.3-0.5c-0.1,0-0.2-0.1-0.2-0.1c0-0.1,0.1-0.1,0.2-0.2l8.8-5.9
		c0.1-0.1,0.2-0.1,0.3-0.3c0-0.2-0.1-0.2-0.5-0.2l-8.7-0.9c-1.6-0.2-1.1-1.3-1.6-1.4c0,0-0.2,0-0.2,0.2c0,0.1,0,0.6-0.1,1.5
		c-0.1,1-0.2,1.4-0.2,1.6c0,0.2,0.1,0.2,0.2,0.2c0.5,0.1,0.4-1.7,1.8-1.5l5.2,0.5c0.4,0,0.6,0.1,0.6,0.2c0,0.1-0.2,0.2-0.4,0.4
		l-7.4,5c-0.3,0.2-0.4,0-0.5,0.5c-0.1,0.7,0,1.1-0.1,1.5c0,0.3-0.1,0.5-0.1,0.8c0,0.2,0.1,0.3,0.2,0.3c0.8,0.1-0.1-1.6,2.9-1.3
		L240.3,211.2z"/>
	<path class="st0" d="M235.2,195.1c-1.5-0.3-0.7-1.2-1.2-1.3c-0.2,0-0.2,0-0.3,0.4c-0.2,0.8-0.2,1.3-0.3,1.8c-0.1,0.5-0.3,1-0.4,1.5
		c0,0.1-0.1,0.5,0.1,0.5c0.5,0.1,0.4-1.5,1.8-1.2l7.3,1.6c1.5,0.3,0.8,1.2,1.4,1.3c0.1,0,0.2,0,0.2-0.1c0.1-0.4,0.1-1,0.3-1.5
		c0.2-1.1,0.4-1.6,0.5-2.1c0.1-0.3,0-0.4-0.1-0.5c-0.5-0.1-0.1,1.6-2,1.2L235.2,195.1z"/>
	<path class="st0" d="M238.5,182.2c-0.1,0-0.1,0.1-0.1,0.1c-0.1,0.2,0.4,0.4,0.3,0.6c-0.1,0.4-1.4,1.1-2,2.7
		c-1.3,3.3,1.4,5.9,3.9,6.8c1.2,0.4,5.1,1.3,6.6-2.6c1.1-2.8-0.6-5-1.2-5.3c-0.1,0-0.2,0.1-0.2,0.1c-0.1,0.3,1.4,2,0.7,4
		c-1,2.5-4.3,2.5-6.3,1.7c-2-0.8-3.6-2.6-2.8-4.5c0.6-1.5,2.3-2.2,3.9-2.3c0.2,0,0.6,0,0.6-0.2c0.1-0.2-0.3-0.3-0.4-0.3L238.5,182.2
		z"/>
	<path class="st0" d="M268.6,330.4c0,0.4,0,0.8-0.3,1.3c-0.1,0.3-0.5,0.1-1-0.2l-3.9-2c-0.5-0.3-0.9-0.4-0.8-0.7
		c0.2-0.4,0.6-0.7,0.9-0.9l4.9-4.2c0.3-0.3,0.4-0.2,0.5-0.2c0.1,0.1,0.1,0,0.1,0.4L268.6,330.4z M273,319.6c0.1-1.1,0.1-1.2-0.2-1.3
		c-0.4-0.2-0.8,0.3-1.2,0.7l-16.9,14.2c-1.6,1.3-2.9,0.4-3.3,1.1c-0.2,0.4,0.3,0.6,0.7,0.8c0.8,0.4,1.7,0.7,2.6,1.1
		c0.9,0.5,1.7,1,2.6,1.5c0.6,0.3,1.4,1,1.7,0.3c0.4-0.8-2.9-1.9-1.8-4c0.4-0.7,1.3-1.6,1.8-2.1c1.7-1.6,2.3-1.5,2.8-1.2l5.6,2.8
		c0.7,0.4,0.7,0.7,0.5,3.6c-0.1,1-0.2,1.6-0.5,2.3c-0.9,1.8-2.8,0.5-3.2,1.3c-0.2,0.4,0.2,0.5,0.7,0.8c0.8,0.4,1.9,0.8,3.2,1.5
		c1.9,1,2.6,1.5,3.6,2c0.8,0.4,1,0.6,1.3,0.1c0.5-1-1.6-0.6-1.5-3.2L273,319.6z"/>
	<path class="st0" d="M392.7,318.8l-3.4,2.7c-0.4,0.4-0.8,0.7-1,0.4c-0.3-0.4-0.4-0.8-0.5-1.2l-1.7-6.2c-0.1-0.4,0-0.5,0-0.5
		c0.1-0.1,0,0,0.4,0.1l5.8,3.2c0.4,0.2,0.8,0.4,1,0.8C393.5,318.2,393.1,318.5,392.7,318.8 M407.3,319.5c-0.7-0.9-1.2,1.2-3.5,0
		l-19.4-10.9c-0.9-0.5-1-0.6-1.3-0.4c-0.3,0.3-0.1,0.9,0.1,1.4l5.7,21.3c0.5,2-0.9,2.8-0.4,3.4c0.3,0.3,0.6,0,1-0.3
		c0.7-0.6,1.4-1.2,2.1-1.8c0.8-0.6,1.6-1.1,2.4-1.7c0.5-0.4,1.4-0.8,1-1.4c-0.6-0.7-2.9,1.8-4.4-0.1c-0.5-0.6-0.9-1.8-1.1-2.5
		c-0.8-2.2-0.3-2.7,0.1-3l4.9-3.9c0.6-0.5,1-0.3,3.4,1.1c0.8,0.5,1.4,0.8,1.8,1.4c1.3,1.6-0.7,2.7-0.1,3.5c0.3,0.4,0.6,0.1,1-0.3
		c0.7-0.6,1.6-1.4,2.7-2.3c1.7-1.3,2.4-1.7,3.3-2.4C407.4,320.1,407.6,320,407.3,319.5"/>
	<path class="st0" d="M290.7,136.8c-1.8,0.4-3.6-0.8-4-2.6c-0.4-1.8,0.8-3.6,2.6-4c1.8-0.4,3.6,0.8,4,2.6
		C293.7,134.6,292.5,136.4,290.7,136.8 M299.1,132.8l-0.7-3.1c-0.3-1.3-1.5-2.1-2.8-1.8l-2.7,0.6l-0.6-2.8c-0.3-1.3-1.5-2.1-2.8-1.8
		l-3.1,0.7c-1.3,0.3-2.1,1.5-1.8,2.8l0.6,2.8l-2.7,0.6c-1.3,0.3-2.1,1.5-1.8,2.8l0.7,3.1c0.3,1.3,1.5,2.1,2.8,1.8l13-2.8
		C298.5,135.3,299.3,134.1,299.1,132.8"/>
	<path class="st0" d="M319.8,132.3c-1.9,0-3.4-1.5-3.4-3.4c0-1.9,1.5-3.4,3.4-3.4c1.9,0,3.4,1.5,3.4,3.4
		C323.2,130.7,321.7,132.3,319.8,132.3 M326.5,124.6h-2.7l0-2.9c0-1.3-1.1-2.4-2.3-2.4h-3.2c-1.3,0-2.4,1.1-2.4,2.4v2.9l-2.7,0
		c-1.3,0-2.4,1.1-2.4,2.4v3.2c0,1.3,1.1,2.3,2.4,2.3h13.3c1.3,0,2.4-1.1,2.4-2.3V127C328.8,125.6,327.8,124.6,326.5,124.6"/>
	<path class="st0" d="M353.1,134.2c-0.4,1.8-2.2,3-4,2.6c-1.8-0.4-3-2.2-2.6-4c0.4-1.8,2.2-3,4-2.6
		C352.4,130.5,353.5,132.3,353.1,134.2 M357.2,130.7l-2.7-0.6l0.6-2.8c0.3-1.3-0.5-2.5-1.8-2.8l-3.1-0.6c-1.3-0.3-2.5,0.5-2.8,1.8
		l-0.6,2.8l-2.7-0.6c-1.3-0.3-2.5,0.5-2.8,1.8l-0.7,3.1c-0.3,1.3,0.5,2.5,1.8,2.8l13,2.8c1.3,0.3,2.5-0.5,2.8-1.8l0.7-3.1
		C359.3,132.2,358.5,130.9,357.2,130.7"/>
	<path class="st0" d="M374.3,147.9c-1.6-1-2.1-3-1.2-4.6c1-1.6,3-2.1,4.6-1.2L374.3,147.9z M379.7,136.5c-1.1-0.7-2.6-0.3-3.2,0.8
		l-1.5,2.5l-2.4-1.4c-1.1-0.7-2.6-0.3-3.2,0.8l-1.6,2.7c-0.7,1.1-0.3,2.6,0.8,3.2l5.1,3.3c1.1,0.7,2.6,0.3,3.2-0.8l1.6-2.7
		c0.7-1.1,1.2-2.1,1.2-2.1l2.7-4.6L379.7,136.5z"/>
	<path class="st0" d="M265.5,147.9l-3.5-5.8c1.6-1,3.7-0.4,4.6,1.2C267.7,144.9,267.1,147,265.5,147.9 M272,141.9l-1.6-2.7
		c-0.7-1.1-2.1-1.5-3.2-0.8l-2.4,1.4l-1.5-2.5c-0.7-1.1-2.1-1.5-3.2-0.8l-2.7,1.6l2.7,4.6c0,0,0.5,1,1.2,2.1l1.6,2.7
		c0.7,1.1,2.1,1.5,3.2,0.8l5.1-3.3C272.3,144.4,272.7,143,272,141.9"/>
	<path class="st0" d="M227.7,135.8c-0.5,0.6-1.2,1.4-1.8,0.8l-5.1-4.4c-1.5-1.3-1-1.9-0.3-2.7c1.8-2,4.6-1.5,7.1,0.6
		C229.1,131.4,230.4,132.7,227.7,135.8 M243,134.8c-0.2-0.2-0.5-0.2-0.6,0c-0.2,0.2-0.2,0.5-0.4,0.7c-0.1,0.2-0.5,0.6-1,0.4
		c-4.5-1.3-9.6-2.8-9.8-2.9c-0.3-0.2,0-1,0-2.1c-0.1-1.1-0.5-2.5-2.1-3.9c-1.2-1-5.1-3.7-8.9,0.7c-1.2,1.3-2.3,2.8-3.5,4.2
		c-1.1,1.3-1.3,1.3-2.2,2.3c-0.2,0.2-0.3,0.6,0,0.8c0.9,0.8,1.9-2.2,4.7,0.2l11.1,9.7c3.2,2.8,0.9,3.7,1.7,4.4
		c0.5,0.4,0.8-0.1,1-0.3c0.9-1,1.7-2.1,2.6-3.2c0.7-0.8,1.3-1.3,1.6-1.6c0.4-0.5,0.4-0.8,0.2-1c-0.9-0.8-1.6,2.1-4.3-0.2l-4.4-3.8
		c-0.9-0.8-1.2-0.8-0.2-1.9c0.9-1,1.4-1.2,2.9-0.7l5.5,1.8c2,0.6,4.2,1.4,5.6-0.2C243.2,137.3,243.8,135.5,243,134.8"/>
	<path class="st0" d="M284.6,101.8l-3.5,1.1c-0.5,0.1-0.8,0.3-0.9,0c-0.1-0.4-0.1-0.8-0.1-1.3l0.1-6.3c0-0.4,0.1-0.5,0.2-0.5
		c0.1,0,0.1,0,0.3,0.2l4,5.1c0.3,0.3,0.5,0.6,0.7,1.1C285.5,101.6,285.1,101.7,284.6,101.8 M296.5,108c-0.4-1-1.3,0.6-2.9-1.4
		l-13.2-17.3c-0.6-0.8-0.7-0.9-0.9-0.8c-0.3,0.1-0.3,0.8-0.3,1.3l-0.6,21.5c-0.1,2-1.4,2.2-1.2,3c0.1,0.4,0.5,0.2,0.9,0.1
		c0.7-0.2,1.4-0.6,2.2-0.9c0.8-0.3,1.6-0.4,2.4-0.6c0.5-0.2,1.4-0.2,1.2-0.9c-0.3-0.9-2.9,0.5-3.6-1.7c-0.2-0.8-0.3-2-0.3-2.7
		c-0.1-2.3,0.4-2.6,0.8-2.7l5-1.6c0.7-0.2,0.9,0.1,2.5,2.3c0.6,0.8,0.9,1.3,1.2,2c0.6,1.9-1.3,2.2-1,3.1c0.1,0.4,0.4,0.3,0.9,0.1
		c0.7-0.2,1.6-0.7,2.8-1c1.7-0.5,2.4-0.6,3.3-0.9C296.4,108.6,296.6,108.6,296.5,108"/>
	<path class="st0" d="M447.6,210.4l-5.8,2.8c-0.4,0.2-0.7,0.4-1.2,0.4c-0.3,0-0.3-0.4-0.4-0.8l-0.4-3.6c0-0.5-0.1-0.9,0.2-0.9
		c0.5-0.1,0.8,0.1,1.3,0.2l6.1,1.5c0.4,0.1,0.4,0.2,0.4,0.3C447.9,210.3,447.8,210.2,447.6,210.4 M454.3,210.5
		c0-0.3-0.7-0.4-1.2-0.6l-21-5.2c-2-0.5-1.9-1.9-2.7-1.8c-0.4,0-0.3,0.5-0.3,0.8c0.1,0.8,0.3,1.5,0.4,2.3c0.1,0.8,0,1.7,0.1,2.5
		c0.1,0.6-0.1,1.4,0.6,1.3c0.9-0.1,0.1-2.9,2.5-3.2c0.8-0.1,2,0.2,2.7,0.3c2.3,0.4,2.5,0.9,2.5,1.4l0.5,5.3c0.1,0.7-0.3,0.9-2.8,2
		c-0.9,0.4-1.5,0.6-2.2,0.7c-2,0.2-1.9-1.7-2.8-1.6c-0.5,0-0.4,0.4-0.3,0.9c0.1,0.8,0.3,1.8,0.4,2.9c0.2,1.8,0.1,2.5,0.2,3.5
		c0.1,0.7,0,1,0.6,0.9c1.1-0.1-0.4-1.4,2-2.5l19.8-9.3C454.2,210.8,454.3,210.7,454.3,210.5"/>
	<path class="st0" d="M400.9,196.7c-2.6,0.8-5,0.8-5.7-1.5c-0.8-2.4,2.2-4.3,4.5-5c2.3-0.7,4.7-0.8,5.4,1.5
		C405.6,193.4,404.3,195.6,400.9,196.7 M405.8,191.8c-1.1-3.2-4.2-4.1-7.7-3c-3.2,1-4.7,3.5-3.9,6.2c1.4,4.2,5.5,3.8,7.7,3.1
		C405.3,197.1,406.7,194.4,405.8,191.8"/>
	<path class="st0" d="M398.7,184.2c-0.9,0.4-1.8,0.7-2.7-1.2c-0.2-0.4-0.4-0.8,0-1l3-1.4c0.9-0.4,1.1,0,1.3,0.4
		C401,182.3,400.2,183.5,398.7,184.2 M401.3,181.3c-0.4-0.8-0.9-1.7-1.3-2.5c-0.4-0.8-0.4-0.9-0.6-1.5c-0.1-0.1-0.2-0.2-0.4-0.2
		c-0.5,0.3,0.7,1.4-1,2.2l-6.6,3.1c-1.9,0.9-1.9-0.4-2.3-0.2c-0.3,0.1-0.1,0.4-0.1,0.5c0.3,0.6,0.7,1.2,1,1.9
		c0.3,0.5,0.4,0.9,0.4,1.1c0.1,0.3,0.3,0.4,0.4,0.3c0.5-0.3-0.7-1.2,0.9-2l2.6-1.2c0.5-0.2,0.6-0.4,0.9,0.3c0.3,0.6,0.3,0.9-0.3,1.5
		l-1.9,2.2c-0.7,0.8-1.4,1.6-1,2.6c0.2,0.5,1,1.2,1.4,1c0.1-0.1,0.2-0.2,0.1-0.3c-0.1-0.1-0.2-0.2-0.3-0.3c0-0.1-0.2-0.3,0-0.6
		c1.5-1.8,3.1-3.9,3.2-3.9c0.1-0.1,0.5,0.2,1,0.4c0.5,0.2,1.3,0.3,2.2-0.1C400.6,185.3,402.6,184,401.3,181.3"/>
	<path class="st0" d="M408.3,215.3c-0.1,1.4-1.4,2.1-3.1,1.9c-1-0.1-1.9-0.3-1.7-2.4c0-0.4,0.1-0.9,0.5-0.9l3.3,0.3
		C408.4,214.3,408.4,214.7,408.3,215.3 M409.2,211.1c-0.6-0.1-0.1,1.5-2,1.3l-7.3-0.7c-2.1-0.2-1.4-1.3-2-1.3
		c-0.3,0-0.3,0.3-0.3,0.4c-0.1,0.7-0.1,1.4-0.1,2.2c-0.1,0.6-0.2,1-0.2,1.2c0,0.3,0.1,0.4,0.2,0.5c0.6,0.1,0.1-1.4,1.8-1.2l2.9,0.3
		c0.6,0.1,0.7,0,0.6,0.7c-0.1,0.7-0.2,0.9-1,1.2l-2.7,0.9c-1,0.3-2.1,0.7-2.2,1.8c-0.1,0.6,0.2,1.5,0.7,1.6c0.1,0,0.2-0.1,0.2-0.2
		c0-0.1-0.1-0.3-0.1-0.4c0-0.1,0-0.4,0.3-0.5c2.2-0.8,4.7-1.8,4.8-1.7c0.2,0,0.3,0.4,0.6,0.9c0.4,0.4,0.9,0.9,2,1
		c0.8,0.1,3.1,0,3.4-3c0.1-0.9,0.1-1.9,0.2-2.8c0.1-0.9,0.2-1,0.2-1.6C409.4,211.3,409.4,211.1,409.2,211.1"/>
	<path class="st0" d="M248.2,177.2l-0.9,1.7c-0.1,0.2-0.2,0.4-0.3,0.3c-0.2-0.1-0.3-0.3-0.4-0.4l-1.9-2.3c-0.1-0.1-0.1-0.2-0.1-0.2
		c0-0.1,0,0,0.2,0l3,0.4c0.2,0,0.4,0,0.6,0.1C248.4,176.8,248.3,177,248.2,177.2 M254.4,175.1c-0.4-0.2-0.3,0.7-1.5,0.6l-10.2-1.3
		c-0.5-0.1-0.5-0.1-0.6,0.1c-0.1,0.2,0.1,0.4,0.3,0.6l6.4,7.9c0.6,0.7,0.2,1.3,0.5,1.5c0.2,0.1,0.3-0.1,0.4-0.3
		c0.2-0.4,0.4-0.7,0.6-1.1c0.2-0.4,0.5-0.7,0.7-1.1c0.1-0.3,0.4-0.6,0.2-0.7c-0.4-0.2-0.9,1.3-1.9,0.7c-0.3-0.2-0.7-0.6-0.9-0.9
		c-0.7-0.8-0.6-1.1-0.5-1.3l1.3-2.4c0.2-0.3,0.4-0.3,1.6-0.1c0.4,0.1,0.7,0.1,1,0.3c0.8,0.5,0.2,1.2,0.6,1.5
		c0.2,0.1,0.3-0.1,0.4-0.3c0.2-0.4,0.4-0.8,0.7-1.4c0.4-0.8,0.7-1.1,0.9-1.6C254.6,175.3,254.7,175.2,254.4,175.1"/>
	<path class="st0" d="M347.5,284.5c-6.6,7.9-11.9,11.7-18,16.1c-3.1,2.3-5.2,3.6-8.9,6.7c-11.3-7.7-18.2-12.6-28.3-22.8
		c-16.8-17.1-18.1-34.7-18.1-57.7v-48.5h92.3v48.5C366.5,251,363.8,265.1,347.5,284.5 M366.5,174.1l-1,0H270v52.7
		c0,23.3,1.4,42.5,19.3,60.7c10.5,10.7,17.6,15.6,29.5,23.7l0.7,0.5l1.3,0.9l1.2-1c3.6-3,6.8-5.3,9.9-7.6
		c6.3-4.6,11.8-8.5,18.8-16.8c17-20.3,20-35.6,20-60.4v-52.7H366.5z"/>
</g>
<polygon class="st0" points="418.5,124.3 419.5,126.2 421.7,122.5 420,119.5 "/>
<g>
	<path class="st0" d="M301.7,103.2c0.8,3.9-2.5,3-2.2,4.2c0.2,0.7,0.6,0.6,1.1,0.5c1.1-0.2,1.9-0.5,3.6-0.9c1.8-0.4,2.7-0.4,3.7-0.6
		c0.8-0.2,1.3-0.2,1.1-1c-0.2-0.9-3.4,0.8-4.2-3.3l-3.2-14.9c-0.3-1.6-0.1-1.8,1-2l2.2-0.5c3-0.8,2.9,3.1,4,2.8
		c0.7-0.1,0.1-1.4,0-1.8l-0.9-3c-0.1-0.3-0.2-0.8-0.6-0.7c-2.5,0.5-4.2,1-8,1.8c-3.8,0.8-5.6,1.1-8.1,1.6c-0.4,0.1-0.3,0.5-0.3,0.9
		l0.5,4.4c0,0.4,0,1.2,0.6,1.1c1.2-0.3-0.5-4.4,2.5-5l2.2-0.5c1.1-0.2,1.4-0.1,1.7,1.5L301.7,103.2z"/>
	<path class="st0" d="M266.5,115.6c1.8,3.5-1.6,3.5-1,4.7c0.4,0.7,0.7,0.4,1.2,0.2c1-0.5,1.7-1,3.3-1.9c1.6-0.8,2.5-1.1,3.4-1.6
		c0.7-0.4,1.2-0.5,0.8-1.2c-0.4-0.8-3,1.6-4.9-2l-7-13.5c-0.7-1.4-0.6-1.7,0.4-2.2l2-1.1c2.7-1.5,3.6,2.2,4.6,1.7
		c0.6-0.3-0.3-1.3-0.5-1.7l-1.7-2.6c-0.2-0.3-0.4-0.7-0.8-0.5c-2.2,1.2-3.8,2.1-7.2,3.9c-3.5,1.8-5.1,2.5-7.4,3.7
		c-0.4,0.2-0.1,0.6,0,0.9l1.7,4.1c0.1,0.4,0.4,1.1,0.8,0.9c1.1-0.6-1.7-4.1,1-5.5l2-1.1c1-0.5,1.3-0.5,2,0.9L266.5,115.6z"/>
</g>
<polygon class="st0" points="303.1,324.5 306.8,327.9 308.9,327.7 306.5,324.2 "/>
<path class="st0" d="M273,527.3L253.8,570c0.7-0.1,1.5-0.2,2.3-0.2c0.7,0,1.5,0,2.2,0.2c1.7-5.6,3.9-11,6-16.4l7.9-18.5l7.8,18.5
	l3,7.2l2.8,7.4l0.6,1.8c1.1-0.2,2.3-0.2,3.4-0.2c1,0,2.1,0.1,3.2,0.2l-1.1-2.2l-17.5-40.5H273z"/>
<path class="st0" d="M264.2,565c0-2.6,2.2-4.8,4.8-4.8c2.7,0,4.8,2.1,4.8,4.8s-2.2,4.8-4.8,4.8C266.3,569.8,264.2,567.7,264.2,565"
	/>
<path class="st0" d="M509,527.3L489.8,570c0.7-0.1,1.5-0.2,2.3-0.2s1.5,0,2.2,0.2c1.7-5.6,3.9-11,6-16.4l7.9-18.5l7.7,18.5l3,7.2
	l2.8,7.4l0.6,1.8c1.1-0.2,2.3-0.2,3.4-0.2c1,0,2.1,0.1,3.1,0.2l-1-2.2l-17.5-40.5H509z"/>
<path class="st0" d="M500.1,565c0-2.6,2.2-4.8,4.8-4.8c2.6,0,4.8,2.1,4.8,4.8s-2.2,4.8-4.8,4.8C502.3,569.8,500.1,567.7,500.1,565"
	/>
<path class="st0" d="M509,464.4l-19.2,42.7c0.7-0.1,1.5-0.2,2.3-0.2s1.5,0,2.2,0.2c1.7-5.6,3.9-11,6-16.4l7.9-18.5l7.7,18.5l3,7.2
	l2.8,7.4l0.6,1.8c1.1-0.2,2.3-0.2,3.4-0.2c1,0,2.1,0.1,3.1,0.2l-1-2.2l-17.5-40.5H509z"/>
<path class="st0" d="M500.1,502.2c0-2.6,2.2-4.8,4.8-4.8c2.6,0,4.8,2.1,4.8,4.8c0,2.6-2.2,4.8-4.8,4.8
	C502.3,506.9,500.1,504.8,500.1,502.2"/>
<path class="st0" d="M474.1,402.9h1.2l17.5,40.5l1,2.2c-1-0.1-2.1-0.2-3.2-0.2c-1.1,0-2.3,0-3.4,0.2l-0.6-1.8l-2.8-7.4l-3-7.2
	l-7.8-18.5l-7.9,18.5c-2.1,5.4-4.4,10.8-6,16.4c-0.7-0.2-1.4-0.2-2.2-0.2c-0.7,0-1.5,0.1-2.3,0.2L474.1,402.9z M465.2,440.6
	c0-2.6,2.2-4.8,4.8-4.8c2.7,0,4.8,2.1,4.8,4.8c0,2.6-2.1,4.8-4.8,4.8C467.3,445.4,465.2,443.3,465.2,440.6"/>
<path class="st0" d="M116.8,530.5c2.7-0.1,5.3-0.2,7.8-0.2c13.8,0,19.2,4.7,19.2,17.8c0,7.5-2.2,14.3-8.9,17.6
	c-5,2.5-12.7,1.8-18.1,1.5V530.5z M111.4,569.9h12c6.5,0,13.4-0.1,18.7-4.7c4.6-4.1,7.8-9.6,7.8-18.1c0-5.8-2-11.6-6.6-15.4
	c-5.2-4.3-11.4-3.7-17.9-3.7h-14V569.9z"/>
<path class="st0" d="M165.8,530.9h4.8l6.2,0.1c1.9,0.1,3.7,0.3,5.6,0.7c-0.1-0.6-0.2-1.2-0.2-1.8c0-0.6,0.1-1.2,0.2-1.8h-21.9v41.8
	h22.3c-0.1-0.6-0.2-1.2-0.2-1.8c0-0.6,0.1-1.2,0.2-1.8c-1.9,0.3-3.8,0.5-5.7,0.6c-3.7,0.1-7.4,0.4-11.2,0.2v-17.9h9.6
	c1.9,0,3.6,0.2,5.5,0.3c-0.1-0.7-0.2-1.2-0.2-1.7c0-0.6,0.1-1.1,0.2-1.6c-1.9,0.1-3.6,0.3-5.5,0.3h-9.6V530.9z"/>
<path class="st0" d="M236.3,556c-1,2.5-2.3,4.9-3.5,7.4h-0.6l-7.6-18.6l-4.1-10.8c-0.7-2-1.5-4.1-2.3-6c-1.1,0.1-2,0.2-3,0.2
	c-1,0-2-0.1-3-0.2c2.7,5.2,11.7,27.6,18.8,42c0.4-0.1,0.9-0.2,1.3-0.2c0.4,0,0.8,0.1,1.2,0.2c2.2-6.8,15.9-38.3,17.9-42
	c-0.8,0.1-1.5,0.2-2.2,0.2c-0.8,0-1.5-0.1-2.3-0.2l-0.4,1l-3.7,10.3L236.3,556z"/>
<path class="st0" d="M309.7,528.1c-1,0.1-1.9,0.2-2.7,0.2c-0.9,0-1.9-0.1-2.7-0.2v41.8h22.5c-0.1-0.6-0.2-1.2-0.2-1.8
	c0-0.6,0.1-1.2,0.2-1.8c-2,0.2-3.9,0.5-5.9,0.6c-3.7,0.1-7.4,0.4-11.2,0.2V528.1z"/>
<path class="st0" d="M345,530.9h4.8l6.2,0.1c1.9,0.1,3.7,0.3,5.6,0.7c-0.1-0.6-0.2-1.2-0.2-1.8c0-0.6,0.1-1.2,0.2-1.8h-21.9v41.8
	h22.3c-0.1-0.6-0.2-1.2-0.2-1.8c0-0.6,0.1-1.2,0.2-1.8c-1.9,0.3-3.8,0.5-5.7,0.6c-3.7,0.1-7.4,0.4-11.2,0.2v-17.9h9.6
	c1.9,0,3.6,0.2,5.5,0.3c-0.1-0.7-0.2-1.2-0.2-1.7c0-0.6,0.1-1.1,0.2-1.6c-1.9,0.1-3.6,0.3-5.5,0.3H345V530.9z M355.3,524.6l-7.8-7.7
	c-0.7-0.7-1.5-1.6-2.3-2.2c-0.3-0.3-0.5-0.3-0.8-0.4c-1.1-0.3-2.2,0.3-2.5,1.3c-0.2,0.6-0.2,1.1,0.1,1.7c0.4,0.6,1,0.9,1.5,1.4
	l9.7,6H355.3z"/>
<path class="st0" d="M411.3,528.1c-0.6,0.1-1.2,0.2-1.7,0.2c-0.6,0-1.2-0.1-1.7-0.2v31.6h-0.6l-29.3-31.6h-2.4v42
	c0.6-0.1,1.1-0.2,1.7-0.2c0.6,0,1.1,0.1,1.7,0.2V537h0.6l26.7,29.4c1.3,1.4,2.5,2.9,3.2,3.7h1.8V528.1z"/>
<path class="st0" d="M460,563.5c-1.2,1-6.4,5-13.1,5c-9.8,0-16.6-7.6-16.6-19.4c0-10.4,5.6-19.6,17-19.6c6.4,0,10.9,4.2,11.8,5.3
	l0.4-0.1c0.3-1.6,0.7-3.2,1.3-4.7c-4.1-1.8-8.8-2.8-13.3-2.8c-13,0-23.3,7.9-23.3,21.7c0,13.4,8.2,22,21.7,22
	c4.7,0,9.8-0.9,13.7-3.5L460,563.5z"/>
<path class="st0" d="M473.5,570.1c0.9-0.1,1.8-0.2,2.7-0.2c0.9,0,1.7,0.1,2.7,0.2v-42c-1,0.1-1.9,0.2-2.7,0.2
	c-0.9,0-1.8-0.1-2.7-0.2V570.1z"/>
<path class="st0" d="M188.1,486.7c0.4,6.8-4.3,20.2-17.3,20.2c-9.2,0-16.9-6.5-16.9-19c0-12.5,6.5-20.7,17.4-20.7
	c4.9,0,9.8,2.1,12.8,6C187.4,477.3,188.1,481.6,188.1,486.7 M170.6,508.9c13.8,0,23.5-9,23.5-22.7c0-14.8-11.8-21-23.4-21
	c-12.8,0-22.9,8.5-22.9,21.9C147.9,500.3,156.9,508.9,170.6,508.9"/>
<path class="st0" d="M209.5,466.1c-1,0.1-1.9,0.2-2.7,0.2c-0.9,0-1.9-0.1-2.7-0.2V508h22.5c-0.1-0.6-0.2-1.2-0.2-1.8
	c0-0.6,0.1-1.2,0.2-1.8c-2,0.2-3.9,0.5-5.9,0.6c-3.7,0.1-7.4,0.4-11.2,0.2V466.1z"/>
<path class="st0" d="M117.5,488.8c1.5,0,5.6,0.4,8.3-0.1c8.7-1.7,13.2-5.1,13.2-12.5c0-7.4-4-10.1-15.9-10.1h-11.1v42
	c0.9-0.1,1.8-0.2,2.7-0.2c0.9,0,1.7,0.1,2.7,0.2V488.8z M117.4,468.5c1.9-0.1,6.2-0.2,8.9,0.1c4.9,0.4,7,3.7,7,7.9
	c0,5.5-3.6,9.3-9.8,9.9c-2.1,0.2-4.6,0.2-6.1,0V468.5z"/>
<path class="st0" d="M239,508.1c0.9-0.1,1.8-0.2,2.7-0.2c0.9,0,1.7,0.1,2.7,0.2v-42c-1,0.1-1.9,0.2-2.7,0.2c-0.9,0-1.9-0.1-2.7-0.2
	V508.1z"/>
<path class="st0" d="M274.1,469.1c5.5,0,9.8,0.4,12.9,0.7c-0.1-0.6-0.2-1.2-0.2-1.8s0.1-1.2,0.2-1.8h-31.9c0.1,0.7,0.2,1.2,0.2,1.8
	s-0.1,1.2-0.2,1.8c3.5-0.4,7.3-0.7,13.5-0.7v39.2c0.9-0.1,1.8-0.2,2.7-0.2c0.9,0,1.7,0.1,2.7,0.2V469.1z"/>
<path class="st0" d="M302.9,469h4.8l6.2,0.1c1.9,0.1,3.7,0.3,5.6,0.7c-0.1-0.6-0.2-1.2-0.2-1.8c0-0.6,0.1-1.2,0.2-1.8h-21.9V508
	h22.3c-0.1-0.6-0.2-1.2-0.2-1.8c0-0.6,0.1-1.2,0.2-1.8c-1.9,0.3-3.8,0.5-5.7,0.6c-3.7,0.1-7.4,0.4-11.2,0.3v-17.9h9.6
	c1.9,0,3.6,0.2,5.5,0.3c-0.1-0.7-0.2-1.2-0.2-1.7c0-0.6,0.1-1.1,0.2-1.6c-1.9,0.1-3.6,0.3-5.5,0.3h-9.6V469z M313.2,462.6l-7.8-7.7
	c-0.7-0.7-1.5-1.6-2.3-2.2c-0.3-0.3-0.5-0.3-0.8-0.4c-1.1-0.3-2.2,0.3-2.5,1.3c-0.2,0.6-0.2,1.1,0.1,1.7c0.4,0.6,1,0.9,1.5,1.3
	l9.7,6H313.2z"/>
<path class="st0" d="M364.6,501.5c-1.2,1-6.4,5-13.1,5c-9.8,0-16.6-7.6-16.6-19.4c0-10.4,5.6-19.6,17-19.6c6.4,0,10.9,4.2,11.8,5.3
	l0.4-0.1c0.3-1.6,0.7-3.2,1.3-4.7c-4.1-1.8-8.8-2.8-13.3-2.8c-13,0-23.3,7.9-23.3,21.7c0,13.4,8.2,22,21.7,22
	c4.7,0,9.8-0.9,13.7-3.5L364.6,501.5z"/>
<path class="st0" d="M413.5,466.1c-0.6,0.1-1.2,0.2-1.7,0.2c-0.6,0-1.2-0.1-1.7-0.2v31.6h-0.6l-29.3-31.6h-2.4v42
	c0.6-0.1,1.1-0.2,1.7-0.2c0.6,0,1.1,0.1,1.7,0.2V475h0.6l26.7,29.4c1.3,1.4,2.5,2.9,3.2,3.7h1.9V466.1z"/>
<path class="st0" d="M429.2,508.1c0.9-0.1,1.8-0.2,2.7-0.2c0.9,0,1.7,0.1,2.7,0.2v-42c-1,0.1-1.9,0.2-2.7,0.2
	c-0.9,0-1.9-0.1-2.7-0.2V508.1z"/>
<path class="st0" d="M482.2,501.5c-1.2,1-6.4,5-13.1,5c-9.8,0-16.6-7.6-16.6-19.4c0-10.4,5.6-19.6,17-19.6c6.4,0,10.9,4.2,11.8,5.3
	l0.4-0.1c0.3-1.6,0.7-3.2,1.3-4.7c-4.1-1.8-8.8-2.8-13.3-2.8c-13,0-23.3,7.9-23.3,21.7c0,13.4,8.1,22,21.7,22
	c4.7,0,9.8-0.9,13.6-3.5L482.2,501.5z"/>
<path class="st0" d="M116.4,404.2c-1,0.1-1.9,0.2-2.7,0.2c-0.9,0-1.8-0.1-2.7-0.2v24.6c0.1,4.9,0.6,10.4,4.4,13.9
	c3.2,2.9,7.3,4.3,13.4,4.3c10.9,0,18-6.1,18-18.3v-24.5c-0.6,0.1-1.2,0.2-1.7,0.2c-0.6,0-1.2-0.1-1.7-0.2v22.9c0,10-3.5,17-13.3,17
	c-10.6,0-13.7-5.6-13.7-16.4V404.2z"/>
<path class="st0" d="M200.3,404.2c-0.6,0.1-1.2,0.2-1.7,0.2c-0.6,0-1.2-0.1-1.7-0.2v31.6h-0.6l-29.3-31.6h-2.4v42
	c0.6-0.1,1.1-0.2,1.7-0.2c0.6,0,1.1,0.1,1.7,0.2v-33.1h0.6l26.7,29.4c1.3,1.4,2.5,2.9,3.2,3.7h1.9V404.2z"/>
<path class="st0" d="M217.3,446.2c0.9-0.1,1.8-0.2,2.7-0.2c0.9,0,1.7,0.1,2.7,0.2v-42c-1,0.1-1.9,0.2-2.7,0.2
	c-0.9,0-1.9-0.1-2.7-0.2V446.2z"/>
<path class="st0" d="M258.9,432.1c-1,2.5-2.3,4.9-3.5,7.4h-0.6l-7.6-18.6l-4.1-10.8c-0.7-2-1.5-4.1-2.3-6c-1.1,0.1-2,0.2-3,0.2
	c-1,0-2-0.1-3-0.2c2.7,5.2,11.7,27.6,18.8,42c0.4-0.1,0.9-0.2,1.3-0.2c0.4,0,0.8,0.1,1.2,0.2c2.2-6.8,15.9-38.3,17.9-42
	c-0.8,0.1-1.5,0.2-2.2,0.2c-0.8,0-1.5-0.1-2.3-0.2l-0.4,1l-3.7,10.3L258.9,432.1z"/>
<path class="st0" d="M290.6,407h4.8l6.2,0.1c1.9,0.1,3.7,0.3,5.6,0.7c-0.1-0.6-0.2-1.2-0.2-1.8s0.1-1.2,0.2-1.8h-21.9V446h22.3
	c-0.1-0.6-0.2-1.2-0.2-1.8c0-0.6,0.1-1.2,0.2-1.8c-1.9,0.3-3.8,0.5-5.7,0.6c-3.7,0.1-7.4,0.4-11.2,0.2v-17.9h9.6
	c1.9,0,3.6,0.2,5.5,0.3c-0.1-0.7-0.2-1.2-0.2-1.7c0-0.6,0.1-1.1,0.2-1.6c-1.9,0.1-3.6,0.3-5.5,0.3h-9.6V407z"/>
<path class="st0" d="M326.4,406.4c2.6-0.1,6.8-0.3,9.1,0.1c4.6,0.7,6.8,3.5,6.8,7.7c0,4.8-3.4,7.9-7.9,8.8c-3.2,0.6-7.1,0.4-8,0.3
	V406.4z M321,446.2c0.9-0.1,1.8-0.2,2.7-0.2c0.9,0,1.7,0.1,2.7,0.2v-20.5h2.3l4.9,5.8l7.3,9.4c1.3,1.7,2.5,3.4,3.9,5.4
	c1.1-0.1,2.3-0.2,3.5-0.2c1.2,0,2.3,0.1,3.6,0.2l-1.2-1.5l-3-3.4l-12.7-16c6.2-1.1,12.7-4.6,12.7-11.7c0-6.2-4.2-9.3-13.7-9.3H321
	V446.2z"/>
<path class="st0" d="M362.1,437.9c-0.2,1.8-0.6,3.7-1.2,5.5c2.1,2.3,7,3.6,10.1,3.6c8.4,0,15.3-5.2,15.3-14
	c0-13.1-19.5-8.5-19.5-19.8c0-4.4,3.5-7.2,7.8-7.2c3.6,0,6.4,2,7.7,5.3h0.6c0.5-1.7,0.9-3.4,1.7-5c-2.3-2-5.9-2.9-8.8-2.9
	c-7.4,0-13.7,3.9-13.7,11.8c0,13.9,19.3,8.8,19.3,20.3c0,4.9-3.6,9-8.6,9c-4.8,0-7.6-2.5-10-6.4H362.1z"/>
<path class="st0" d="M399.9,446.2c0.9-0.1,1.8-0.2,2.7-0.2c0.9,0,1.7,0.1,2.7,0.2v-42c-1,0.1-1.9,0.2-2.7,0.2
	c-0.9,0-1.9-0.1-2.7-0.2V446.2z"/>
<path class="st0" d="M436.2,407.1c5.5,0,9.8,0.4,12.9,0.7c-0.1-0.6-0.2-1.2-0.2-1.8s0.1-1.2,0.2-1.8h-31.9c0.1,0.7,0.2,1.2,0.2,1.8
	s-0.1,1.2-0.2,1.8c3.5-0.4,7.3-0.7,13.5-0.7v39.2c0.9-0.1,1.8-0.2,2.7-0.2c0.9,0,1.7,0.1,2.7,0.2V407.1z"/>
<path class="st0" d="M516.2,407.1c5.5,0,9.8,0.4,12.9,0.7c-0.1-0.6-0.2-1.2-0.2-1.8s0.1-1.2,0.2-1.8h-31.9c0.1,0.7,0.2,1.2,0.2,1.8
	s-0.1,1.2-0.2,1.8c3.5-0.4,7.3-0.7,13.5-0.7v39.2c0.9-0.1,1.8-0.2,2.7-0.2c0.9,0,1.7,0.1,2.7,0.2V407.1z"/>
</svg>
