<?xml version="1.0" standalone="no"?>
<!DOCTYPE svg PUBLIC "-//W3C//DTD SVG 20010904//EN"
 "http://www.w3.org/TR/2001/REC-SVG-20010904/DTD/svg10.dtd">
<svg version="1.0" xmlns="http://www.w3.org/2000/svg"
 width="568.000000pt" height="657.000000pt" viewBox="0 0 568.000000 657.000000"
 preserveAspectRatio="xMidYMid meet">

<g transform="translate(0.000000,657.000000) scale(0.100000,-0.100000)"
fill="#000000" stroke="none">
<path d="M2620 5965 c-244 -36 -451 -117 -660 -256 -132 -87 -335 -291 -423
-425 -419 -633 -338 -1444 197 -1980 477 -476 1188 -597 1792 -304 439 213
750 613 856 1100 30 142 33 454 5 600 -131 672 -680 1188 -1352 1269 -116 14
-307 12 -415 -4z m511 -64 c306 -62 556 -196 780 -420 225 -226 353 -461 421
-775 32 -146 32 -445 0 -593 -118 -548 -512 -985 -1037 -1148 -259 -81 -514
-92 -776 -35 -473 103 -879 436 -1070 879 -87 203 -122 377 -122 606 0 256 52
469 168 693 76 146 153 250 280 377 240 241 550 392 891 435 106 13 355 3 465
-19z"/>
<path d="M2620 5843 c-36 -8 -71 -17 -77 -19 -15 -4 -18 -64 -3 -64 6 0 10 9
10 19 0 18 18 31 45 31 20 0 53 -185 37 -211 -12 -19 -11 -20 25 -14 64 11 67
13 45 33 -14 12 -27 46 -40 110 l-20 92 26 7 c17 4 29 1 37 -11 18 -24 24 -20
16 12 -9 33 -18 34 -101 15z"/>
<path d="M3018 5827 c11 -13 10 -32 -4 -109 -9 -51 -23 -100 -31 -109 -12 -15
-11 -17 9 -23 27 -7 79 -7 61 1 -17 6 -16 51 1 141 16 83 20 91 44 76 38 -24
15 -115 -24 -100 -8 3 -14 1 -14 -4 0 -18 41 -22 65 -6 47 31 45 106 -2 124
-16 6 -48 14 -73 18 -40 6 -43 5 -32 -9z"/>
<path d="M2399 5698 c0 -51 -4 -115 -8 -141 l-8 -48 26 6 c32 8 52 25 28 25
-22 0 -34 47 -16 65 8 8 25 16 39 20 21 5 29 1 39 -19 8 -13 11 -32 8 -40 -4
-9 -1 -16 6 -15 19 1 84 27 70 28 -7 1 -49 48 -93 106 -45 58 -83 105 -86 105
-2 0 -4 -42 -5 -92z m49 -17 c18 -25 19 -30 6 -35 -34 -13 -44 -6 -44 29 0 43
10 44 38 6z"/>
<path d="M3212 5764 c-51 -35 -81 -154 -49 -195 19 -24 52 -39 89 -39 40 0 78
35 102 92 23 54 20 92 -10 127 -21 26 -33 31 -68 31 -23 0 -52 -7 -64 -16z
m98 -14 c11 -11 20 -33 20 -51 0 -108 -82 -192 -130 -134 -27 33 -3 154 38
185 31 25 47 25 72 0z"/>
<path d="M2178 5690 l-77 -40 10 -30 c13 -36 28 -40 22 -6 -4 18 1 27 17 36
27 15 28 14 80 -88 33 -65 40 -85 31 -96 -22 -26 3 -25 48 2 43 25 44 27 20
32 -17 4 -35 26 -62 75 -50 92 -54 111 -27 120 12 4 27 1 36 -6 8 -6 17 -10
19 -7 6 5 -24 48 -33 48 -4 -1 -42 -19 -84 -40z"/>
<path d="M3421 5712 c9 -15 3 -35 -35 -109 -27 -55 -52 -93 -63 -95 -12 -3 3
-15 45 -37 60 -30 65 -31 88 -16 32 21 31 38 -1 23 -26 -12 -75 2 -75 20 0 17
82 167 98 179 8 7 14 14 11 16 -51 37 -86 47 -68 19z"/>
<path d="M3587 5621 c6 -24 -95 -178 -122 -185 -16 -4 -14 -9 18 -31 46 -30
47 -30 40 -5 -7 25 91 179 120 189 18 7 16 10 -15 29 -43 27 -47 27 -41 3z"/>
<path d="M2023 5598 c-37 -26 -41 -38 -14 -38 23 0 137 -162 127 -179 -11 -17
3 -13 43 12 33 20 34 22 14 25 -25 4 -129 142 -134 180 l-4 22 -32 -22z"/>
<path d="M3650 5555 c-13 -14 -18 -25 -12 -25 6 0 14 5 17 10 8 14 26 12 48
-5 18 -13 15 -18 -44 -95 -46 -60 -68 -80 -81 -77 -28 8 -21 -8 16 -37 41 -31
49 -32 41 -6 -5 14 9 39 50 92 32 40 61 75 66 76 17 7 39 -20 39 -46 0 -25 1
-25 15 -6 8 10 15 24 15 29 0 9 -131 115 -142 115 -2 0 -15 -11 -28 -25z"/>
<path d="M1932 5528 c-40 -24 -50 -59 -28 -94 23 -34 51 -43 104 -31 38 8 47
6 64 -11 13 -13 18 -27 14 -40 -9 -29 -32 -34 -72 -17 -40 17 -45 5 -8 -20 32
-21 68 -13 89 19 20 30 12 66 -21 97 -21 19 -30 21 -83 16 -47 -5 -62 -3 -72
9 -27 33 33 72 67 43 26 -21 29 1 3 25 l-24 23 -33 -19z"/>
<path d="M2645 5524 c-444 -78 -808 -425 -906 -864 -130 -583 219 -1170 794
-1334 401 -115 829 1 1119 302 166 173 264 363 304 593 23 134 15 339 -20 472
-112 431 -473 761 -911 832 -111 18 -274 18 -380 -1z m470 -59 c382 -101 678
-397 783 -783 23 -86 26 -115 26 -267 1 -196 -15 -278 -82 -433 -186 -432
-651 -706 -1107 -653 -58 6 -145 23 -192 37 -653 189 -977 915 -679 1519 132
268 348 461 621 554 140 48 230 61 390 57 110 -4 161 -10 240 -31z"/>
<path d="M2802 5443 c-6 -10 -10 -22 -10 -28 -1 -5 -11 -12 -24 -15 -16 -4
-24 -14 -26 -34 -5 -37 14 -56 55 -56 33 0 34 1 19 22 -20 28 -4 61 27 56 25
-3 35 -41 17 -64 -10 -12 -8 -14 17 -14 43 0 65 20 61 55 -2 21 -10 31 -28 35
-15 4 -26 15 -30 30 -7 32 -63 41 -78 13z"/>
<path d="M2472 5398 c-7 -7 -12 -22 -12 -34 0 -13 -8 -24 -20 -27 -14 -4 -20
-14 -20 -35 0 -39 19 -54 59 -46 31 6 31 7 14 26 -22 24 -7 53 28 53 21 0 24
-4 22 -33 -1 -32 0 -33 25 -27 41 10 53 26 43 60 -6 24 -13 30 -34 28 -19 -1
-27 4 -31 23 -5 18 -13 24 -34 24 -15 0 -33 -5 -40 -12z"/>
<path d="M3142 5398 c-7 -7 -12 -18 -12 -24 0 -8 -11 -12 -27 -11 -21 2 -28
-4 -34 -28 -10 -34 2 -50 43 -60 25 -6 26 -5 25 27 -2 29 1 33 22 33 35 0 50
-29 28 -53 -17 -19 -17 -20 14 -26 40 -8 59 7 59 46 0 21 -6 31 -20 35 -12 3
-20 14 -20 27 0 28 -18 46 -45 46 -12 0 -26 -5 -33 -12z"/>
<path d="M2654 5326 c-11 -28 1 -51 25 -51 32 0 49 28 32 49 -17 20 -50 21
-57 2z"/>
<path d="M2970 5325 c-20 -25 -8 -50 25 -50 21 0 31 5 33 18 4 21 -14 47 -33
47 -7 0 -18 -7 -25 -15z"/>
<path d="M2814 5260 c-7 -43 -44 -83 -69 -73 -8 2 -20 19 -26 37 -10 27 -16
32 -35 28 -17 -3 -24 -11 -24 -27 0 -57 -65 -60 -93 -4 -14 30 -21 35 -42 31
-21 -4 -25 -10 -25 -43 0 -54 -30 -70 -65 -35 -31 31 -61 25 -69 -15 -7 -36
-29 -46 -61 -29 -20 11 -27 11 -40 0 -14 -12 -13 -15 6 -37 14 -14 35 -23 53
-24 30 -1 30 -1 -7 -11 -21 -6 -41 -17 -44 -25 -13 -33 15 -33 148 1 162 42
354 57 551 45 141 -8 199 -18 337 -56 78 -22 95 -23 102 -12 5 9 4 19 -4 26
-13 12 -144 53 -171 53 -24 0 -19 18 7 22 12 2 31 -4 42 -13 34 -30 86 -34
118 -9 15 12 27 25 27 30 0 13 -43 20 -56 9 -20 -17 -51 -1 -63 31 -12 35 -33
38 -68 10 -35 -27 -61 -12 -69 40 -9 54 -43 56 -67 5 -12 -25 -23 -35 -40 -35
-29 0 -47 18 -47 47 0 13 -4 23 -9 23 -5 0 -16 3 -24 6 -11 4 -18 -5 -26 -29
-7 -20 -19 -38 -27 -41 -19 -7 -64 37 -64 63 0 33 -11 51 -31 51 -14 0 -20
-10 -25 -40z m85 -127 c2 -2 -24 -3 -60 -3 l-63 0 34 24 35 24 25 -21 c14 -12
27 -23 29 -24z m-293 -10 c0 -1 -24 -5 -53 -11 l-52 -9 22 26 c21 25 22 26 53
11 17 -8 31 -16 30 -17z m114 22 c25 -14 24 -14 -19 -15 -37 0 -42 2 -31 15
15 18 18 18 50 0z m290 0 c11 -13 6 -15 -31 -15 -43 1 -44 1 -19 15 32 18 35
18 50 0z m149 -19 l22 -24 -43 9 c-24 4 -50 9 -58 9 -8 1 -1 7 15 15 40 18 38
18 64 -9z m-704 -26 c3 -4 -11 -11 -31 -14 -19 -4 -43 -10 -52 -13 -9 -4 -4 5
12 19 28 23 59 27 71 8z"/>
<path d="M2186 5267 c-17 -13 -16 -16 14 -70 17 -31 37 -57 44 -57 18 0 86 49
86 63 0 7 -9 23 -20 37 -17 22 -21 24 -41 12 -18 -12 -23 -11 -36 7 -17 25
-23 26 -47 8z m72 -59 c14 -14 16 -48 3 -48 -12 0 -41 46 -34 54 9 9 18 7 31
-6z"/>
<path d="M3447 5259 c-13 -18 -18 -19 -36 -7 -20 12 -24 10 -41 -12 -11 -14
-20 -30 -20 -37 0 -14 68 -63 87 -63 6 0 26 25 44 56 31 54 31 58 14 70 -25
19 -31 18 -48 -7z m7 -47 c6 -11 -21 -52 -35 -52 -13 0 -11 34 3 48 14 14 25
15 32 4z"/>
<path d="M2345 5250 c-7 -23 10 -50 30 -50 20 0 37 27 30 50 -4 13 -15 20 -30
20 -15 0 -26 -7 -30 -20z"/>
<path d="M3277 5264 c-13 -14 -7 -43 12 -53 24 -13 55 8 50 35 -4 19 -48 32
-62 18z"/>
<path d="M2793 5063 c-23 -9 -15 -52 11 -59 65 -16 126 15 97 50 -13 15 -79
21 -108 9z"/>
<path d="M2502 5034 c-57 -39 13 -84 83 -52 28 13 35 52 9 62 -28 11 -69 6
-92 -10z"/>
<path d="M2670 5040 c-13 -9 -13 -12 4 -25 21 -16 60 -3 53 18 -5 16 -38 20
-57 7z"/>
<path d="M2954 5038 c-11 -18 25 -39 47 -27 23 12 24 25 3 33 -24 9 -42 7 -50
-6z"/>
<path d="M3071 5036 c-35 -42 65 -88 114 -52 11 8 16 19 12 30 -13 33 -104 49
-126 22z"/>
<path d="M2394 4989 c-16 -17 -16 -19 1 -25 19 -7 46 5 52 23 7 20 -35 21 -53
2z"/>
<path d="M3248 5003 c-21 -5 -23 -14 -6 -31 15 -15 45 -16 53 -2 7 11 -12 41
-24 39 -3 -1 -14 -3 -23 -6z"/>
<path d="M3345 4986 c-12 -9 -16 -21 -13 -39 3 -15 2 -27 -3 -27 -4 0 -54 9
-111 20 -278 53 -508 53 -767 -1 -52 -10 -97 -19 -100 -19 -3 0 -6 15 -6 33 0
28 -4 32 -27 35 -25 3 -28 0 -28 -28 0 -18 6 -33 15 -36 17 -7 21 -54 4 -54
-8 0 -10 -115 -6 -407 4 -376 6 -415 26 -492 52 -205 183 -363 448 -544 l70
-49 114 85 c224 167 348 333 400 539 20 76 22 118 26 476 4 333 3 392 -9 392
-18 0 -18 52 0 58 17 5 15 59 -2 65 -8 3 -22 0 -31 -7z m-170 -86 c66 -12 122
-23 124 -26 2 -2 -203 -4 -457 -4 -254 0 -462 2 -462 4 0 4 200 42 260 50 19
2 121 3 225 1 141 -2 221 -8 310 -25z m165 -414 c0 -370 -9 -458 -59 -576 -34
-81 -111 -195 -183 -271 -45 -47 -238 -199 -253 -199 -20 0 -199 142 -280 224
-80 80 -109 117 -138 176 -67 137 -70 161 -74 593 l-5 387 496 0 496 0 0 -334z"/>
<path d="M2407 4803 c-4 -3 -7 -201 -7 -438 l0 -432 35 -69 c19 -38 52 -89 74
-114 l40 -45 1 553 0 552 -68 0 c-38 0 -72 -3 -75 -7z"/>
<path d="M2640 4211 l0 -599 68 -53 c37 -28 73 -56 80 -62 9 -7 12 124 12 652
l0 661 -80 0 -80 0 0 -599z"/>
<path d="M2900 4154 l0 -656 43 34 c23 19 59 47 79 64 l38 29 0 593 0 592 -80
0 -80 0 0 -656z"/>
<path d="M3160 4279 c0 -604 -5 -577 80 -407 l50 100 0 419 0 419 -65 0 -65 0
0 -531z"/>
<path d="M1964 4935 c-116 -183 -167 -442 -129 -665 20 -120 53 -219 101 -305
54 -96 47 -91 88 -67 l36 21 14 -28 c14 -26 13 -28 -15 -45 -16 -9 -29 -22
-29 -28 0 -20 91 -148 127 -177 60 -50 102 -48 174 10 l39 30 -16 32 c-9 18
-27 47 -41 65 -23 31 -24 34 -9 57 15 23 14 27 -20 84 -20 33 -44 86 -54 118
-18 57 -19 58 -52 55 l-34 -3 -27 88 c-35 114 -51 232 -42 312 10 94 9 93 68
65 28 -13 55 -20 58 -16 4 4 18 49 32 100 l24 93 -29 17 c-16 9 -26 22 -23 30
3 8 7 30 10 50 l6 37 -97 60 c-54 33 -103 61 -111 63 -7 2 -29 -22 -49 -53z
m142 -30 l85 -55 -24 -33 c-72 -95 -117 -241 -117 -379 0 -107 20 -209 66
-337 19 -53 34 -97 34 -97 0 -1 -128 -77 -152 -91 -12 -6 -95 176 -120 262
-20 69 -23 103 -23 250 0 149 3 180 24 250 34 116 115 285 137 285 2 0 43 -25
90 -55z m59 -194 c-14 -58 -20 -71 -36 -71 -10 0 -19 5 -19 11 0 14 63 140 67
135 2 -2 -3 -36 -12 -75z m55 10 c0 -5 -7 -14 -15 -21 -13 -10 -15 -9 -15 9 0
12 6 21 15 21 8 0 15 -4 15 -9z m-20 -105 c-4 -20 -11 -40 -14 -43 -3 -3 -26
2 -51 11 -48 19 -52 42 -5 33 21 -5 33 0 50 18 13 14 25 24 26 22 2 -1 -1 -20
-6 -41z m10 -597 c0 -5 11 -32 25 -61 14 -28 25 -53 25 -56 0 -2 -13 6 -28 17
l-28 20 -45 -30 c-40 -27 -45 -28 -56 -12 -21 28 -15 39 37 71 34 21 50 38 50
52 0 12 5 18 10 15 6 -3 10 -10 10 -16z m59 -223 c68 -96 70 -100 53 -119 -22
-25 -66 -47 -92 -47 -40 0 -187 166 -166 187 15 15 121 81 128 80 3 -1 38 -47
77 -101z m11 54 c0 -17 -15 -11 -28 11 -12 19 -11 19 8 9 11 -6 20 -15 20 -20z"/>
<path d="M2006 4859 c67 -88 78 -99 85 -87 5 8 1 15 -11 20 -13 5 -18 13 -13
24 4 11 3 15 -5 10 -6 -3 -13 -2 -16 3 -4 5 7 9 24 9 17 -1 33 -5 36 -10 7
-11 24 0 24 16 0 8 -17 13 -47 14 -27 2 -57 5 -68 9 -16 5 -18 3 -9 -8z"/>
<path d="M1950 4761 c-15 -29 -12 -56 8 -74 22 -20 73 -22 90 -5 14 14 16 54
4 62 -5 3 -8 -4 -8 -16 1 -30 -27 -44 -61 -32 -36 12 -45 53 -14 61 24 6 28
23 6 23 -8 0 -19 -9 -25 -19z"/>
<path d="M1906 4634 c-3 -9 -6 -16 -6 -17 0 -1 15 -2 33 -2 17 -1 45 -3 62 -5
21 -4 30 -1 33 10 2 11 -7 15 -30 15 -18 0 -45 4 -59 8 -20 5 -28 3 -33 -9z"/>
<path d="M1895 4571 c-13 -12 -2 -21 19 -15 14 3 32 2 40 -3 13 -7 8 -13 -24
-33 -22 -14 -40 -30 -40 -36 0 -6 19 -11 42 -12 23 -1 50 -5 60 -8 11 -3 18 0
18 8 0 10 -11 12 -40 10 -22 -2 -40 0 -40 5 0 4 18 19 40 33 22 14 40 27 40
30 0 7 -109 27 -115 21z"/>
<path d="M1943 4433 c-56 -4 -63 -6 -63 -25 0 -17 3 -18 15 -8 21 18 47 5 43
-22 -2 -18 -9 -23 -31 -21 -19 1 -27 -3 -27 -15 0 -14 11 -17 63 -17 57 0 62
2 62 22 0 14 -3 19 -9 13 -6 -6 -18 -10 -28 -10 -13 0 -18 8 -18 31 0 29 2 31
28 26 23 -5 28 -2 28 14 0 10 0 18 -1 17 0 -1 -28 -3 -62 -5z"/>
<path d="M1947 4271 c-3 -13 -13 -21 -26 -21 -14 0 -19 5 -15 15 4 8 1 15 -5
15 -16 0 -14 -25 4 -40 29 -24 85 14 59 40 -8 8 -13 6 -17 -9z"/>
<path d="M2000 4220 c0 -6 5 -10 10 -10 6 0 10 -9 10 -20 0 -13 -7 -20 -20
-20 -11 0 -20 7 -20 15 0 17 -16 20 -24 6 -4 -5 0 -12 6 -14 10 -4 9 -8 -2
-16 -23 -17 -30 -13 -30 16 0 18 -3 24 -10 17 -7 -7 -6 -23 3 -49 9 -26 15
-34 19 -23 6 14 68 34 95 29 16 -2 -6 66 -24 73 -7 3 -13 1 -13 -4z"/>
<path d="M2060 4103 c0 -14 -76 -47 -89 -38 -6 3 -9 11 -6 16 4 5 1 9 -4 9
-16 0 -13 -16 9 -60 15 -30 24 -38 38 -32 16 6 16 7 0 10 -41 8 -1 45 69 64 8
2 8 8 -3 22 -8 11 -14 15 -14 9z"/>
<path d="M2169 3835 c-12 -33 -16 -36 -46 -33 -21 3 -32 0 -30 -6 2 -6 16 -10
31 -8 26 3 27 2 16 -18 -9 -16 -9 -25 -1 -33 8 -8 14 -2 22 21 9 26 16 32 41
32 17 0 27 -4 23 -10 -3 -5 1 -10 9 -10 21 0 30 -18 16 -35 -16 -19 -30 -19
-30 0 0 16 -16 20 -24 6 -3 -5 2 -12 11 -15 15 -6 15 -8 1 -23 -18 -17 -42 -8
-34 13 3 8 2 14 -3 14 -19 0 -19 -14 1 -40 l21 -28 47 36 47 37 -30 43 c-21
29 -34 39 -41 32 -13 -13 -36 -13 -36 -1 0 5 7 16 15 24 12 13 12 17 1 27 -12
9 -17 4 -27 -25z"/>
<path d="M3557 4927 l-98 -62 6 -37 c3 -20 7 -42 10 -50 3 -8 -7 -21 -23 -31
l-29 -17 27 -97 c29 -106 32 -108 92 -77 50 26 56 20 63 -58 8 -90 -7 -205
-42 -322 l-27 -88 -32 5 c-33 6 -33 5 -54 -57 -11 -35 -36 -89 -55 -121 -19
-32 -35 -60 -35 -63 0 -3 8 -14 17 -24 16 -18 14 -21 -31 -67 -53 -54 -57 -78
-14 -99 38 -18 129 -17 165 1 31 16 94 81 112 116 9 17 8 24 -9 41 -24 24 -24
21 1 64 l20 35 32 -20 c18 -10 35 -19 39 -19 15 0 89 149 117 236 73 225 63
471 -27 690 -36 87 -97 184 -114 183 -7 0 -57 -28 -111 -62z m133 3 c32 -45
85 -166 110 -250 17 -58 23 -109 27 -230 4 -142 2 -163 -21 -255 -25 -96 -110
-290 -124 -282 -45 25 -152 90 -152 93 0 2 11 32 25 66 56 143 70 214 70 363
0 111 -4 151 -19 195 -24 70 -61 146 -92 187 l-25 33 83 54 c46 30 86 55 90
55 4 1 16 -12 28 -29z m-151 -206 c36 -72 38 -84 12 -84 -16 0 -22 13 -35 69
-24 105 -23 105 23 15z m-49 -14 c0 -11 -2 -20 -5 -20 -2 0 -9 9 -15 20 -9 16
-8 20 5 20 8 0 15 -9 15 -20z m61 -93 c43 8 42 -14 -1 -31 -53 -21 -57 -21
-64 12 -4 15 -10 36 -13 47 -5 17 -1 16 23 -7 21 -19 36 -25 55 -21z m-61
-602 c0 -8 23 -29 50 -46 28 -17 50 -35 50 -40 0 -18 -30 -69 -41 -69 -6 0
-29 11 -52 25 -30 17 -47 21 -57 15 -29 -18 -28 -10 1 48 16 31 29 63 29 70 0
6 5 12 10 12 6 0 10 -7 10 -15z m42 -181 l59 -36 -17 -27 c-48 -75 -112 -108
-188 -97 -25 4 -48 12 -52 17 -3 5 12 29 34 53 22 24 52 62 67 85 15 22 30 41
33 41 2 0 31 -16 64 -36z m-112 16 c0 -5 -5 -10 -11 -10 -5 0 -7 5 -4 10 3 6
8 10 11 10 2 0 4 -4 4 -10z"/>
<path d="M3640 4913 c0 -7 -22 -25 -49 -41 -36 -20 -47 -32 -41 -42 7 -11 11
-10 25 3 20 21 25 21 40 1 14 -19 50 -12 59 13 4 8 -3 30 -14 47 -11 17 -20
25 -20 19z m20 -48 c0 -19 -24 -30 -41 -19 -9 5 -7 11 6 21 24 17 35 17 35 -2z"/>
<path d="M3655 4804 c-22 -13 -48 -24 -58 -24 -15 0 -16 -3 -6 -22 10 -19 12
-19 21 -5 9 18 38 24 38 8 0 -5 -7 -14 -15 -21 -8 -7 -15 -22 -15 -34 0 -20 1
-20 23 5 12 15 34 30 50 33 30 7 37 40 15 68 -12 13 -17 13 -53 -8z m48 -35
c-7 -7 -20 -8 -30 -5 -17 7 -17 8 1 22 23 17 48 2 29 -17z"/>
<path d="M3680 4709 c-47 -19 -55 -69 -15 -95 26 -17 58 -12 88 14 46 41 -11
105 -73 81z m71 -25 c11 -14 10 -20 -14 -40 -32 -27 -59 -31 -76 -10 -15 18
-5 41 22 54 32 15 53 14 68 -4z"/>
<path d="M3698 4589 c-32 -18 -41 -48 -23 -75 20 -31 55 -32 55 -3 0 18 -3 19
-15 9 -18 -15 -35 -5 -35 21 0 12 10 23 26 29 35 14 50 12 69 -6 14 -15 14
-18 0 -40 -13 -20 -13 -24 -1 -24 16 0 29 41 20 65 -7 16 -43 35 -67 35 -7 0
-20 -5 -29 -11z"/>
<path d="M3677 4456 c-5 -12 1 -16 23 -16 38 0 38 -12 1 -26 -24 -10 -29 -18
-33 -55 -3 -24 -1 -48 3 -53 5 -6 1 -18 -8 -28 -38 -42 30 -77 72 -38 17 16
25 18 30 9 5 -7 0 -18 -11 -26 -19 -14 -19 -15 1 -11 28 5 32 44 6 57 -16 9
-25 6 -51 -15 -24 -21 -34 -24 -43 -15 -9 10 -7 16 10 30 15 12 18 22 12 32
-15 25 -10 39 16 39 26 0 32 -9 15 -26 -6 -6 -3 -10 9 -11 14 -1 17 3 14 18
-4 14 0 19 16 19 23 0 30 -35 9 -43 -8 -3 -6 -6 5 -6 10 -1 17 6 17 17 0 9 3
26 6 38 5 18 2 20 -30 16 -41 -5 -86 4 -86 17 0 14 49 23 68 12 26 -15 52 5
52 39 0 29 -2 30 -44 30 -24 0 -51 3 -59 6 -8 3 -17 -2 -20 -10z m113 -31 c0
-9 -9 -15 -25 -15 -24 0 -32 10 -18 23 12 13 43 7 43 -8z"/>
<path d="M3635 4190 c-13 -42 47 -69 75 -35 14 17 40 20 40 4 0 -6 -9 -13 -20
-16 -21 -6 -18 -23 5 -23 19 0 29 38 15 55 -16 20 -39 19 -61 -1 -11 -10 -25
-14 -36 -9 -16 6 -16 8 6 26 22 18 22 19 3 19 -12 0 -23 -9 -27 -20z"/>
<path d="M3614 4129 c-8 -13 -10 -12 58 -36 48 -17 58 -18 62 -6 8 21 8 23 -7
17 -8 -3 -34 4 -60 15 -30 13 -49 16 -53 10z"/>
<path d="M3595 4070 c-25 -28 -13 -67 30 -87 31 -15 36 -15 59 1 34 22 34 58
0 85 -33 26 -66 27 -89 1z m92 -21 c19 -16 16 -37 -6 -49 -23 -12 -60 -1 -80
24 -32 38 43 60 86 25z"/>
<path d="M3840 5428 c0 -19 -18 -42 -74 -92 -41 -36 -82 -66 -92 -66 -13 0 -5
-13 31 -50 52 -53 69 -59 101 -35 18 13 17 14 -17 15 -22 0 -42 7 -53 19 -16
18 -15 20 21 54 29 28 40 33 51 25 7 -7 12 -22 9 -35 -5 -29 4 -29 31 0 27 28
28 37 4 37 -10 0 -23 5 -30 12 -9 9 -6 18 15 40 15 15 32 28 40 28 17 0 36
-38 30 -61 -6 -22 3 -25 21 -7 19 19 14 29 -38 87 -46 51 -50 53 -50 29z"/>
<path d="M3907 5428 c-3 -12 -3 -26 0 -31 9 -14 33 22 26 39 -8 21 -20 17 -26
-8z"/>
<path d="M1739 5339 c-34 -40 -38 -50 -22 -45 17 5 37 -7 97 -59 42 -37 76
-73 76 -81 0 -20 13 -17 38 9 27 28 28 37 4 37 -10 0 -33 13 -52 29 -31 26
-33 30 -17 36 10 4 43 1 73 -8 48 -14 56 -14 69 -1 19 20 19 38 0 31 -21 -9
-115 22 -115 37 0 30 -41 66 -75 66 -28 0 -40 -8 -76 -51z m99 5 c25 -17 29
-46 9 -62 -20 -17 -92 44 -76 64 15 18 39 18 67 -2z"/>
<path d="M1631 5193 c-39 -61 -40 -65 -18 -59 17 4 44 -8 105 -49 45 -31 82
-62 82 -70 0 -27 15 -15 48 39 38 63 39 76 11 102 -20 18 -20 18 -14 -9 9 -36
-2 -77 -21 -77 -8 0 -30 10 -49 23 -26 18 -31 26 -24 40 6 9 19 17 30 17 26 0
16 16 -23 36 -29 15 -30 15 -23 -6 4 -12 1 -27 -5 -35 -12 -15 -25 -12 -64 18
-19 14 -19 15 -2 42 12 18 24 25 37 22 27 -7 24 8 -5 21 -22 10 -26 6 -65 -55z"/>
<path d="M3895 5241 c-87 -40 -117 -113 -71 -168 29 -34 81 -52 99 -34 8 8 4
11 -16 11 -15 0 -36 9 -47 20 -32 32 -25 67 24 116 36 37 50 44 83 44 21 0 44
-5 51 -12 17 -17 15 -69 -4 -96 -19 -28 -11 -28 26 -1 21 16 26 26 20 38 -5 9
-11 28 -15 43 -6 30 -49 58 -87 58 -13 0 -41 -9 -63 -19z"/>
<path d="M1566 5089 c-13 -27 -5 -52 9 -29 3 5 11 10 16 10 11 0 119 -99 119
-110 0 -14 -155 11 -167 27 -16 20 -14 22 -46 -60 -31 -77 -35 -106 -13 -88
19 16 184 -32 208 -61 17 -19 18 -19 24 -2 3 11 10 30 15 43 5 13 7 26 3 30
-4 3 -9 0 -11 -6 -7 -18 -23 -16 -116 13 -91 29 -118 47 -99 66 9 9 41 9 134
1 68 -6 125 -9 127 -6 3 2 -39 48 -92 102 l-97 98 -14 -28z"/>
<path d="M4087 5101 c-7 -28 -167 -105 -197 -96 -20 6 -20 6 -3 -29 16 -34 17
-35 27 -13 10 19 135 90 144 82 2 -2 -22 -49 -53 -105 -31 -56 -54 -104 -52
-107 3 -2 49 17 103 42 55 25 107 44 117 41 20 -5 21 10 3 43 -13 23 -13 23
-18 3 -4 -13 -30 -33 -68 -52 -34 -17 -63 -30 -65 -28 -2 2 19 43 46 92 54 97
55 103 36 131 -13 17 -14 17 -20 -4z"/>
<path d="M4188 4872 c-4 -15 -30 -28 -102 -51 -53 -16 -102 -28 -110 -25 -11
4 -12 -2 -3 -35 12 -43 23 -53 29 -24 3 19 190 86 213 76 12 -4 13 0 3 28 -14
45 -24 55 -30 31z"/>
<path d="M1457 4812 c-2 -4 -7 -19 -11 -34 -7 -29 2 -36 21 -17 11 11 129 -7
138 -21 3 -4 -30 -22 -73 -40 -106 -44 -122 -55 -122 -87 0 -21 3 -24 12 -15
16 16 56 15 136 -4 40 -10 74 -25 83 -37 16 -19 16 -19 22 13 10 48 9 51 -12
38 -15 -9 -35 -9 -90 2 -39 7 -71 16 -71 20 0 4 47 27 105 51 58 24 105 47
105 51 0 4 -46 17 -102 29 -58 13 -110 31 -120 41 -9 9 -19 14 -21 10z"/>
<path d="M4065 4745 c-71 -37 -87 -105 -36 -156 16 -16 37 -29 46 -29 13 0 9
7 -14 29 -17 16 -31 37 -31 48 0 68 139 119 197 72 24 -21 15 -68 -19 -100
-32 -29 -27 -34 21 -20 19 5 25 15 28 46 6 58 -4 83 -40 105 -39 24 -110 26
-152 5z"/>
<path d="M1408 4545 c-2 -19 0 -35 4 -35 4 0 8 5 8 10 0 19 51 10 111 -21 34
-17 59 -32 58 -34 -2 -1 -40 -10 -83 -19 -54 -11 -83 -13 -91 -6 -9 8 -14 1
-18 -27 -7 -42 -3 -51 15 -36 7 6 66 23 131 38 64 15 117 31 117 35 0 4 -52
31 -115 60 -63 30 -115 57 -115 62 0 4 -4 8 -9 8 -5 0 -11 -16 -13 -35z"/>
<path d="M4020 4519 c0 -43 1 -44 18 -22 12 16 24 20 44 16 21 -4 27 -12 30
-40 4 -30 0 -36 -25 -49 -22 -12 -32 -13 -43 -3 -12 10 -14 5 -14 -29 0 -23 5
-44 10 -47 6 -3 10 -1 10 5 0 6 54 36 120 67 66 31 118 58 116 61 -3 2 -58 17
-123 34 -65 16 -123 34 -130 40 -10 8 -13 1 -13 -33z m183 -39 c5 -4 -6 -13
-24 -19 -25 -9 -34 -8 -41 1 -17 28 -9 40 25 33 17 -4 36 -11 40 -15z"/>
<path d="M1582 3985 l-33 -15 27 -35 c15 -20 24 -38 21 -41 -3 -3 -24 -8 -46
-11 -46 -6 -48 -11 -25 -54 l15 -30 35 26 c19 14 39 23 44 20 5 -3 13 -24 16
-46 4 -21 8 -39 10 -39 2 0 19 7 38 17 l35 16 -25 32 c-33 43 -31 51 15 59 39
6 40 7 29 36 -14 41 -24 45 -54 21 -37 -29 -43 -27 -50 19 -7 45 -7 45 -52 25z"/>
<path d="M4046 3960 c-7 -46 -13 -48 -50 -19 -30 24 -40 20 -54 -21 -11 -29
-10 -30 29 -36 46 -8 48 -16 15 -59 l-25 -32 35 -16 c19 -10 36 -17 38 -17 2
0 6 18 10 39 3 22 11 43 16 46 5 3 25 -6 44 -20 l35 -26 15 30 c23 43 21 48
-25 54 -22 3 -43 8 -46 11 -3 3 6 21 21 41 l27 35 -35 15 c-19 8 -37 15 -39
15 -3 0 -7 -18 -11 -40z"/>
<path d="M2067 3468 c2 -13 -12 -75 -30 -138 -18 -63 -30 -116 -26 -118 5 -2
57 23 116 55 59 32 116 60 126 63 14 4 11 10 -19 34 l-37 29 6 -25 c8 -30 -3
-41 -85 -87 -38 -21 -58 -28 -57 -19 1 32 56 163 67 161 23 -5 12 15 -22 41
-42 32 -44 32 -39 4z"/>
<path d="M3520 3421 c0 -6 14 -60 30 -121 17 -61 30 -122 30 -136 l0 -25 37
28 37 28 -27 3 c-53 6 -42 79 14 97 25 8 59 -12 59 -35 0 -26 4 -25 46 8 31
24 49 52 24 37 -9 -6 -108 43 -212 105 -21 12 -38 17 -38 11z m79 -82 c32 -19
33 -21 15 -33 -30 -21 -38 -18 -51 19 -14 41 -10 42 36 14z"/>
<path d="M3363 3317 c-24 -11 -43 -25 -43 -30 0 -5 6 -7 13 -4 8 3 18 2 23 -1
19 -13 94 -161 94 -186 l0 -25 45 26 c43 24 61 41 30 29 -8 -3 -21 1 -28 9
-27 26 -97 173 -91 189 7 19 9 20 -43 -7z"/>
<path d="M2235 3239 c-44 -39 -93 -76 -109 -83 l-30 -14 42 -21 c41 -21 55
-18 30 7 -9 9 -7 16 7 32 22 24 36 25 75 5 41 -21 40 -74 0 -87 -10 -3 -1 -12
27 -26 23 -12 44 -22 45 -22 2 0 4 49 5 108 1 59 5 122 8 140 9 47 -9 41 -100
-39z m51 -57 c-3 -3 -18 0 -32 7 l-27 12 29 30 29 31 3 -37 c2 -20 1 -40 -2
-43z"/>
<path d="M3249 3260 c-60 -5 -82 -18 -105 -61 -43 -84 17 -199 104 -199 45 0
96 32 112 70 17 41 6 49 -16 12 -17 -31 -51 -52 -81 -52 -9 0 -33 18 -55 40
-33 36 -38 47 -38 89 0 35 5 53 20 66 26 24 73 22 111 -5 37 -27 42 -24 21 15
-16 29 -19 30 -73 25z"/>
<path d="M2443 3242 c15 -17 15 -25 -7 -112 -14 -52 -32 -99 -40 -106 -14 -10
-5 -14 48 -28 84 -21 99 -20 121 4 24 27 13 36 -19 15 -29 -20 -86 -12 -86 11
0 35 44 190 57 200 11 9 4 14 -31 23 -59 15 -62 14 -43 -7z"/>
<path d="M2673 3236 c27 -20 20 -28 -18 -20 -23 4 -35 2 -35 -5 0 -6 6 -11 14
-11 21 0 24 -17 16 -118 -4 -63 -11 -97 -21 -102 -21 -13 -11 -17 73 -24 75
-7 77 -6 94 19 20 30 12 45 -13 23 -25 -21 -53 -29 -74 -23 -15 5 -19 16 -19
50 0 24 5 47 11 50 16 11 59 -4 59 -20 0 -8 5 -15 10 -15 6 0 10 20 10 45 0
44 -12 60 -24 30 -3 -8 -17 -15 -31 -15 -23 0 -25 4 -25 45 0 45 0 45 34 45
24 0 39 -7 50 -22 14 -19 16 -19 22 -5 11 31 -3 47 -43 47 -27 0 -42 6 -51 20
-7 11 -22 20 -35 20 -20 -1 -21 -2 -4 -14z"/>
<path d="M3010 3210 c0 -5 7 -10 15 -10 21 0 35 -41 35 -102 l0 -51 -79 76
c-69 67 -83 77 -115 77 -40 0 -46 -9 -17 -27 15 -10 20 -29 26 -104 6 -80 5
-94 -9 -105 -23 -17 -9 -21 44 -13 37 5 41 8 23 14 -27 9 -30 16 -39 106 l-7
73 99 -91 c54 -51 100 -91 102 -89 2 3 -1 55 -8 117 -10 104 -10 115 6 126 15
11 11 13 -29 13 -26 0 -47 -4 -47 -10z"/>
<path d="M4482 2369 c-10 -24 -56 -126 -101 -225 -44 -100 -81 -184 -81 -188
0 -3 10 -6 23 -6 17 0 25 9 35 43 18 55 123 307 131 312 6 3 81 -170 137 -312
15 -39 19 -43 50 -43 19 0 34 2 34 4 0 9 -191 441 -199 449 -6 6 -17 -8 -29
-34z"/>
<path d="M3352 2380 c-40 -25 -66 -81 -57 -126 7 -40 56 -84 113 -103 87 -29
118 -95 72 -154 -39 -49 -128 -42 -163 13 -17 28 -24 25 -29 -11 -6 -37 16
-55 80 -65 50 -8 117 14 151 50 33 35 45 98 26 142 -12 29 -26 40 -82 65 -88
40 -113 63 -113 106 0 70 86 100 140 48 l27 -25 11 24 c10 22 8 27 -11 41 -32
22 -124 20 -165 -5z"/>
<path d="M592 2211 c3 -164 5 -182 24 -208 38 -50 81 -68 165 -68 65 0 81 4
116 27 67 44 77 78 81 266 4 156 3 162 -16 162 -19 0 -20 -8 -24 -162 -4 -178
-12 -209 -65 -244 -35 -23 -117 -24 -159 -1 -52 27 -64 74 -64 252 l0 155 -31
0 -31 0 4 -179z"/>
<path d="M1170 2165 c0 -193 2 -225 15 -225 13 0 15 26 15 175 0 96 3 175 8
175 4 0 78 -79 166 -175 87 -96 162 -175 167 -175 5 0 9 101 9 225 0 217 -1
225 -20 225 -19 0 -20 -8 -22 -167 l-3 -167 -154 167 c-85 92 -160 167 -167
167 -11 0 -14 -42 -14 -225z"/>
<path d="M1730 2165 l0 -225 30 0 30 0 0 225 0 225 -30 0 -30 0 0 -225z"/>
<path d="M1933 2376 c3 -8 47 -110 98 -226 72 -166 95 -210 110 -210 11 0 19
5 19 10 0 6 41 105 90 221 50 115 90 212 90 214 0 3 -10 5 -23 5 -19 0 -28
-16 -71 -132 -68 -183 -95 -243 -106 -232 -5 5 -40 88 -78 184 -69 174 -69
175 -102 178 -26 3 -32 0 -27 -12z"/>
<path d="M2460 2165 l0 -225 124 0 c121 0 125 1 123 21 -1 21 -5 21 -89 15
l-88 -6 0 101 0 101 77 -3 c68 -4 78 -2 81 14 3 15 -6 17 -77 17 l-81 0 0 81
0 81 85 -3 c76 -4 85 -2 85 14 0 15 -12 17 -120 17 l-120 0 0 -225z"/>
<path d="M2850 2165 l0 -225 30 0 30 0 0 110 c0 88 3 110 14 110 13 0 131
-140 167 -198 10 -16 24 -22 51 -22 21 0 38 2 38 5 0 3 -38 52 -85 110 -47 57
-85 106 -85 108 0 2 18 9 39 16 52 15 91 62 91 107 0 82 -39 104 -185 104
l-105 0 0 -225z m189 190 c31 -16 41 -33 41 -71 0 -58 -48 -94 -125 -94 l-45
0 0 90 0 90 50 0 c28 0 64 -7 79 -15z"/>
<path d="M3700 2165 l0 -225 30 0 30 0 0 225 0 225 -30 0 -30 0 0 -225z"/>
<path d="M3890 2371 c0 -17 7 -18 70 -13 l70 5 0 -212 0 -211 30 0 30 0 0 211
0 212 70 -5 c63 -5 70 -4 70 13 0 18 -11 19 -170 19 -159 0 -170 -1 -170 -19z"/>
<path d="M4750 2371 c0 -17 7 -18 70 -13 l70 5 0 -212 0 -211 35 0 35 0 0 211
0 212 65 -5 c59 -5 65 -4 65 13 0 18 -10 19 -170 19 -159 0 -170 -1 -170 -19z"/>
<path d="M4414 2025 c-15 -23 -15 -27 0 -50 28 -42 96 -24 96 25 0 49 -68 67
-96 25z"/>
<path d="M2631 1870 c-8 -4 -11 -15 -8 -23 7 -18 126 -92 134 -83 7 7 -71 92
-98 106 -8 5 -21 5 -28 0z"/>
<path d="M4856 1699 c-138 -306 -186 -411 -186 -414 0 -1 11 -2 24 -2 21 0 28
10 52 76 15 42 49 126 75 186 l48 110 16 -40 c10 -22 34 -81 56 -131 21 -50
47 -116 59 -146 19 -51 22 -54 56 -55 23 -1 34 3 31 10 -29 73 -192 444 -198
451 -5 5 -19 -14 -33 -45z"/>
<path d="M1157 1726 c-104 -29 -167 -114 -167 -225 1 -147 87 -231 240 -232
132 -1 225 67 250 183 14 68 4 127 -30 182 -51 80 -186 122 -293 92z m180 -42
c68 -51 95 -135 75 -234 -28 -132 -148 -195 -262 -137 -59 29 -93 88 -94 166
-2 108 25 167 99 213 41 26 142 21 182 -8z"/>
<path d="M3117 1730 c-112 -28 -178 -111 -179 -225 -1 -101 40 -178 115 -214
85 -41 267 -22 267 29 l0 20 -38 -19 c-89 -45 -168 -35 -225 28 -71 78 -73
220 -4 298 59 67 131 80 212 38 27 -13 50 -23 51 -22 1 1 4 12 8 23 5 18 1 24
-24 32 -46 16 -140 22 -183 12z"/>
<path d="M4380 1727 c-69 -19 -117 -54 -147 -105 -24 -40 -28 -58 -27 -122 0
-152 80 -230 234 -230 75 0 136 19 146 45 10 25 1 26 -41 5 -83 -42 -166 -33
-220 25 -90 95 -65 287 45 343 58 29 106 28 164 -3 26 -14 49 -25 50 -25 2 0
6 11 8 25 5 22 0 26 -31 35 -62 17 -134 20 -181 7z"/>
<path d="M608 1724 c-5 -4 -8 -108 -8 -231 l0 -223 30 0 30 0 0 104 0 104 63
4 c113 8 167 52 167 137 0 54 -7 69 -43 88 -33 17 -226 31 -239 17z m198 -46
c8 -8 18 -34 21 -56 5 -37 2 -45 -30 -77 -31 -31 -41 -35 -86 -35 l-51 0 0 96
0 96 65 -4 c41 -2 71 -10 81 -20z"/>
<path d="M1590 1498 l0 -228 120 0 c118 0 120 0 120 23 0 21 -2 22 -90 19
l-90 -3 0 209 0 209 -30 0 -30 0 0 -229z"/>
<path d="M1970 1499 l0 -230 28 3 27 3 0 225 0 225 -27 2 -28 2 0 -230z"/>
<path d="M2147 1724 c-4 -4 -7 -13 -7 -21 0 -10 19 -13 75 -13 l75 0 0 -210 0
-210 30 0 30 0 0 210 0 210 69 0 c60 0 69 2 67 18 -3 15 -20 17 -168 20 -90 1
-167 -1 -171 -4z"/>
<path d="M2600 1500 l0 -231 117 3 c103 3 118 5 121 21 3 15 -6 17 -87 17
l-91 0 0 95 0 95 80 0 c64 0 80 3 80 15 0 12 -16 15 -80 15 l-80 0 0 80 0 80
85 0 c78 0 85 2 85 20 0 19 -7 20 -115 20 l-115 0 0 -230z"/>
<path d="M3460 1500 c0 -222 1 -230 20 -230 19 0 20 8 22 180 l3 180 163 -180
c90 -99 168 -180 173 -180 6 0 8 89 7 227 -3 207 -5 228 -20 231 -16 3 -18
-12 -20 -169 l-3 -173 -159 172 c-87 95 -165 172 -173 172 -10 0 -13 -44 -13
-230z"/>
<path d="M4020 1499 l0 -230 28 3 27 3 0 225 0 225 -27 2 -28 2 0 -230z"/>
<path d="M4795 1370 c-28 -31 -10 -74 32 -78 25 -3 35 2 49 22 15 24 15 28 0
51 -20 31 -56 33 -81 5z"/>
<path d="M3077 1196 c-6 -16 10 -32 70 -70 69 -43 75 -30 14 29 -60 57 -75 65
-84 41z"/>
<path d="M2319 1038 c-7 -18 -52 -120 -101 -227 -48 -107 -88 -196 -88 -198 0
-1 11 -3 24 -3 19 0 27 8 36 38 26 81 133 323 140 315 10 -10 128 -297 136
-329 5 -20 12 -24 44 -24 l38 0 -99 227 c-54 125 -102 229 -107 231 -5 1 -15
-12 -23 -30z"/>
<path d="M4111 1053 c-182 -64 -200 -348 -28 -429 83 -38 232 -28 261 18 17
28 1 31 -44 8 -79 -41 -169 -25 -223 40 -84 99 -48 291 62 337 49 21 129 13
170 -16 36 -26 38 -26 43 9 3 22 -2 26 -42 37 -62 16 -147 14 -199 -4z"/>
<path d="M4867 1044 c-15 -30 -146 -317 -178 -391 l-18 -43 23 0 c19 0 27 10
45 58 59 155 125 302 133 294 5 -5 40 -85 78 -178 l69 -169 35 -3 36 -3 -34
78 c-125 291 -159 369 -166 377 -5 4 -15 -5 -23 -20z"/>
<path d="M597 1054 c-4 -4 -7 -106 -7 -226 l0 -218 113 0 c146 0 181 10 238
70 35 35 49 60 59 100 24 102 -6 201 -77 250 -34 23 -46 25 -177 28 -78 2
-145 0 -149 -4z m262 -42 c62 -31 76 -61 76 -166 0 -83 -3 -96 -27 -133 -37
-56 -79 -73 -177 -73 l-81 0 0 195 0 195 88 0 c63 0 96 -5 121 -18z"/>
<path d="M1120 835 l0 -225 120 0 c111 0 120 1 120 19 0 17 -7 18 -90 13 l-90
-5 0 97 0 96 80 0 c70 0 80 2 80 18 0 15 -9 17 -80 14 l-80 -4 0 87 0 88 90
-6 c84 -5 90 -4 90 14 0 18 -8 19 -120 19 l-120 0 0 -225z"/>
<path d="M1701 1013 c12 -27 43 -97 69 -158 93 -215 109 -245 125 -245 9 0 23
16 31 38 9 20 50 118 92 217 42 99 79 183 80 187 2 4 -7 8 -20 8 -22 0 -29
-13 -73 -127 -26 -71 -61 -157 -77 -193 l-30 -65 -76 193 -76 192 -33 0 -32 0
20 -47z"/>
<path d="M2670 835 l0 -225 120 0 c111 0 120 1 120 19 0 17 -7 18 -90 13 l-90
-5 0 212 0 211 -30 0 -30 0 0 -225z"/>
<path d="M3050 835 l0 -225 120 0 c111 0 120 1 120 19 0 17 -7 18 -90 13 l-90
-5 0 97 0 96 80 0 c70 0 80 2 80 18 0 15 -9 17 -80 14 l-80 -4 0 87 0 88 90
-6 c84 -5 90 -4 90 14 0 18 -8 19 -120 19 l-120 0 0 -225z"/>
<path d="M3440 835 c0 -217 1 -225 20 -225 19 0 20 8 22 174 l3 175 159 -175
c87 -95 165 -174 172 -174 12 0 14 37 12 222 -3 202 -5 223 -20 226 -16 3 -18
-12 -20 -169 l-3 -173 -159 172 c-87 95 -165 172 -173 172 -10 0 -13 -43 -13
-225z"/>
<path d="M4497 1053 c-4 -3 -7 -105 -7 -225 l0 -218 30 0 30 0 0 225 0 225
-23 0 c-13 0 -27 -3 -30 -7z"/>
<path d="M2252 698 c-30 -30 -2 -88 42 -88 29 0 46 18 46 50 0 14 -5 31 -12
38 -15 15 -61 15 -76 0z"/>
<path d="M4790 691 c-15 -28 -12 -46 8 -64 27 -24 59 -21 78 8 15 23 15 27 0
50 -21 31 -70 35 -86 6z"/>
</g>
</svg>
