<?xml version="1.0" standalone="no"?>
<!DOCTYPE svg PUBLIC "-//W3C//DTD SVG 20010904//EN"
 "http://www.w3.org/TR/2001/REC-SVG-20010904/DTD/svg10.dtd">
<svg version="1.0" xmlns="http://www.w3.org/2000/svg"
 width="570.000000pt" height="483.000000pt" viewBox="0 0 570.000000 483.000000"
 preserveAspectRatio="xMidYMid meet">

<g transform="translate(0.000000,483.000000) scale(0.100000,-0.100000)"
fill="#0d67bb" stroke="none">
<path d="M20 4570 l0 -250 743 2 742 3 3 248 2 247 -745 0 -745 0 0 -250z"/>
<path d="M4357 4202 l-617 -617 0 -250 0 -250 618 -618 617 -617 355 0 355 0
-743 743 -742 742 742 743 743 742 -355 0 -355 0 -618 -618z"/>
<path d="M20 3330 l0 -250 743 2 742 3 2 248 2 247 -745 0 -744 0 0 -250z"/>
<path d="M2010 3331 l0 -251 353 0 c346 0 353 -1 409 -24 72 -30 128 -74 167
-132 134 -203 51 -464 -177 -556 -55 -22 -66 -23 -404 -23 l-348 0 0 -247 0
-248 364 0 c281 0 381 3 434 15 339 71 605 338 677 680 4 17 9 77 12 135 19
393 -226 738 -617 866 l-85 28 -392 4 -393 3 0 -250z"/>
<path d="M615 1361 c-98 -25 -163 -102 -183 -216 -14 -78 -4 -212 18 -263 61
-137 211 -190 335 -117 44 25 66 52 99 120 17 33 20 61 20 165 0 136 -13 179
-73 243 -51 56 -147 86 -216 68z m113 -97 c12 -8 32 -34 44 -57 19 -36 22 -58
22 -157 0 -100 -3 -121 -22 -158 -56 -106 -166 -103 -214 4 -15 36 -19 67 -19
152 0 118 11 160 57 205 31 32 95 37 132 11z"/>
<path d="M3430 1361 c-74 -24 -123 -66 -161 -141 -20 -40 -23 -59 -23 -170 -1
-116 1 -129 26 -175 46 -88 101 -130 183 -142 90 -12 192 43 234 126 37 73 47
196 25 317 -6 30 -39 92 -67 122 -47 51 -157 83 -217 63z m121 -104 c46 -39
59 -87 59 -211 -1 -161 -36 -226 -124 -229 -45 -1 -81 24 -108 76 -19 36 -22
57 -22 157 0 99 3 121 22 157 12 23 32 49 44 57 34 24 98 20 129 -7z"/>
<path d="M30 1050 l0 -310 55 0 55 0 0 135 0 135 96 0 95 0 -3 43 -3 42 -92 3
-93 3 0 84 0 85 100 0 100 0 0 45 0 45 -155 0 -155 0 0 -310z"/>
<path d="M1000 1050 l0 -310 50 0 50 0 1 243 0 242 21 -45 c11 -25 48 -113 83
-196 35 -83 73 -172 84 -198 l21 -46 65 0 65 0 0 310 0 310 -50 0 -50 0 0
-242 c0 -133 -4 -238 -8 -232 -5 5 -21 41 -37 79 -33 82 -137 328 -156 368
-11 25 -16 27 -76 27 l-63 0 0 -310z"/>
<path d="M1540 1050 l0 -312 123 4 c141 5 205 26 258 86 43 49 58 90 67 180
16 168 -41 286 -157 328 -28 10 -93 18 -168 21 l-123 6 0 -313z m236 205 c91
-37 130 -207 78 -334 -25 -60 -97 -101 -178 -101 l-26 0 0 223 c0 123 3 227 7
231 9 9 78 -2 119 -19z"/>
<path d="M2095 1063 c-55 -164 -101 -304 -103 -310 -3 -9 12 -13 51 -13 l54 0
22 75 23 75 107 0 107 0 12 -35 c7 -19 15 -44 17 -55 11 -58 14 -60 71 -60 30
0 54 3 54 7 0 8 -5 23 -64 203 -24 74 -63 197 -87 272 l-44 138 -60 0 -60 0
-100 -297z m173 160 c37 -133 53 -192 58 -220 l5 -33 -80 0 c-62 0 -81 3 -81
14 0 7 16 65 35 127 19 63 35 122 35 132 0 30 17 18 28 -20z"/>
<path d="M2590 1315 l0 -44 119 -3 119 -3 -121 -210 c-103 -179 -121 -218
-125 -262 l-4 -53 191 0 191 0 0 46 0 45 -125 -3 c-83 -2 -124 0 -121 7 2 6
58 107 125 224 104 183 121 219 121 257 l0 44 -185 0 -185 0 0 -45z"/>
<path d="M3047 1353 c-4 -3 -7 -143 -7 -310 l0 -303 55 0 55 0 0 310 0 310
-48 0 c-27 0 -52 -3 -55 -7z"/>
<path d="M3810 1050 l0 -310 50 0 50 0 1 243 c1 264 -1 260 49 133 8 -21 47
-113 86 -205 l71 -166 66 -3 67 -3 0 311 0 311 -47 -3 -48 -3 -2 -234 c-1
-129 -4 -236 -7 -238 -2 -2 -31 63 -65 144 -34 81 -80 190 -103 241 l-41 92
-63 0 -64 0 0 -310z"/>
<path d="M4330 1050 l0 -310 165 0 165 0 0 45 0 45 -112 0 -113 0 1 93 1 92
102 3 101 3 0 39 0 40 -100 0 -100 0 0 85 0 85 105 0 105 0 0 45 0 45 -160 0
-160 0 0 -310z"/>
<path d="M2157 626 c-62 -23 -107 -64 -137 -127 -38 -80 -42 -223 -9 -311 47
-127 180 -198 291 -154 95 39 135 89 164 206 15 63 16 84 6 151 -14 95 -38
146 -92 192 -62 53 -147 70 -223 43z m130 -86 c57 -34 68 -69 68 -210 0 -107
-3 -129 -19 -155 -32 -49 -57 -65 -107 -65 -54 0 -89 30 -114 99 -21 60 -19
192 4 256 30 85 101 116 168 75z"/>
<path d="M3788 630 c-57 -17 -96 -50 -114 -95 -20 -53 -13 -121 16 -158 18
-22 132 -97 149 -97 16 0 61 -57 61 -78 0 -80 -82 -114 -185 -77 -22 8 -41 15
-42 15 -2 0 -3 -20 -3 -45 0 -40 3 -47 28 -56 94 -37 228 -10 278 57 46 60 45
170 -2 218 -14 14 -58 43 -98 65 -84 46 -99 61 -99 101 0 35 25 66 59 73 24 4
93 -5 127 -18 15 -6 17 -1 17 38 l0 45 -50 11 c-58 13 -103 13 -142 1z"/>
<path d="M4188 630 c-86 -26 -130 -82 -127 -161 4 -71 40 -119 121 -160 85
-42 118 -74 118 -115 0 -71 -89 -103 -185 -69 -22 8 -41 15 -41 15 -1 0 -4
-20 -6 -45 l-3 -45 48 -16 c93 -31 221 2 269 68 22 32 35 109 24 152 -10 42
-54 83 -131 126 -78 43 -105 70 -105 105 0 25 35 60 67 67 21 6 92 -4 126 -17
15 -6 17 -1 17 38 l0 45 -50 11 c-58 13 -103 13 -142 1z"/>
<path d="M30 330 l0 -300 103 0 c130 0 194 18 235 65 63 71 48 182 -30 229
l-41 24 30 16 c46 23 63 57 63 124 0 109 -58 142 -252 142 l-108 0 0 -300z
m233 196 c34 -37 33 -81 -3 -117 -26 -26 -36 -30 -77 -27 l-48 3 -3 83 -3 82
56 0 c46 0 60 -4 78 -24z m-8 -238 c16 -7 29 -25 37 -50 23 -77 -37 -137 -127
-126 l-30 3 -3 79 c-2 44 -1 85 2 93 7 16 85 18 121 1z"/>
<path d="M490 330 l0 -301 53 3 52 3 0 128 0 127 31 0 c52 0 73 -27 112 -145
l37 -110 57 -3 58 -3 -45 128 c-31 88 -53 135 -71 151 -15 13 -25 24 -23 25
52 28 68 40 87 67 45 66 19 166 -54 204 -32 17 -62 22 -166 25 l-128 3 0 -302z
m198 214 c59 -12 79 -107 32 -149 -11 -10 -42 -20 -69 -23 l-49 -4 -4 87 c-2
48 -1 89 1 91 6 6 54 5 89 -2z"/>
<path d="M940 417 c0 -166 3 -223 15 -259 48 -140 236 -183 343 -78 56 53 62
88 62 334 l0 216 -54 0 -55 0 -3 -239 -3 -239 -25 -21 c-30 -25 -91 -28 -125
-5 -39 26 -45 63 -45 290 l0 214 -55 0 -55 0 0 -213z"/>
<path d="M1460 330 l0 -301 48 3 47 3 2 223 c1 123 4 226 7 229 3 3 10 -5 15
-18 5 -13 22 -53 39 -89 16 -36 49 -110 72 -165 23 -55 51 -119 62 -141 l19
-41 65 -2 64 -1 0 300 0 300 -45 0 -45 0 -1 -202 c-1 -112 0 -219 1 -238 3
-66 -7 -46 -160 305 l-56 130 -67 3 -67 3 0 -301z"/>
<path d="M2760 329 l0 -300 53 3 52 3 5 140 5 140 95 -142 95 -142 63 -1 c34
0 62 3 62 6 0 3 -37 58 -82 121 -46 63 -95 132 -111 153 l-27 39 100 135 c55
75 100 138 100 141 0 3 -26 5 -58 5 l-58 0 -90 -127 -89 -128 -3 128 -3 127
-54 0 -55 0 0 -301z"/>
<path d="M3260 330 l0 -300 168 2 167 3 0 40 0 40 -113 3 -113 3 3 87 3 87 98
3 97 3 0 39 0 39 -97 3 -98 3 -3 78 -3 77 104 0 c57 0 106 2 108 4 3 3 3 23 1
45 l-4 41 -159 0 -159 0 0 -300z"/>
<path d="M4492 333 l3 -298 158 -3 157 -3 0 46 0 45 -105 0 -105 0 0 255 0
255 -55 0 -55 0 2 -297z"/>
<path d="M4880 330 l0 -300 163 2 162 3 3 42 3 43 -110 0 -111 0 0 90 0 90
100 0 100 0 0 40 0 40 -100 0 -100 0 0 80 0 79 103 3 102 3 3 43 3 42 -160 0
-161 0 0 -300z"/>
<path d="M5292 334 l3 -299 50 0 50 0 1 125 2 125 27 3 c60 7 77 -15 119 -156
14 -45 28 -87 31 -92 7 -12 102 -13 109 -2 3 5 -16 67 -42 138 -36 99 -52 131
-69 139 -31 13 -29 17 15 37 98 45 99 195 2 252 -29 17 -57 21 -167 24 l-133
4 2 -298z m240 186 c28 -35 23 -86 -11 -121 -24 -23 -38 -29 -74 -29 l-46 0
-3 86 c-2 47 -1 88 2 91 3 3 29 3 59 1 41 -4 59 -10 73 -28z"/>
</g>
</svg>
