<svg version="1.1" id="Livello_1" xmlns="http://www.w3.org/2000/svg" x="0" y="0" viewBox="0 0 425.3 88.4" xml:space="preserve"><style type="text/css">.st0{fill:#878787}.st1{fill:#ff8200}</style><g id="Livello_2_1_"><g id="Livello_1-2"><path class="st0" d="M156.1 78.5c-18.8 0-33.1-13.3-33.1-34.4s14.8-34.2 33.6-34.2 33.6 13.2 33.6 34.2-15.2 34.4-34.1 34.4zm0-9.7c11.5 0 22.8-7.9 22.8-24.7s-11-24.6-22.4-24.6c-11.6 0-22.2 7.9-22.2 24.6s10.3 24.7 21.8 24.7zM200.4 11l20.7 56.2L241.8 11h11.8l-26.1 66.4h-12.9l-26-66.4h11.8zm84.5 67.5C266 78.5 252 65.2 252 44.1s13.5-34.2 32.9-34.2 31.9 13.6 31.9 31.8c0 2.2-.1 4.5-.4 6.7h-53.1c.9 13.5 10.3 20.8 21.6 20.8 9.9 0 16.2-5.1 18.7-12.2h11.9c-3.5 12-14.1 21.5-30.6 21.5zm-21.5-39.2h42c.1-13-9.6-20.1-21-20.1-10.8 0-19.8 7.2-21 20.1z"/><path class="st1" d="M361.9 11h11v66.4h-11zm63.4 0H381v9h16.6v57.4h11V20h16.7z"/><path class="st0" d="M335.2 77.3h-10.3V36.9c0-.3-.1-10.4 7.3-18 5.1-5.2 12.4-7.9 21.6-7.9v10.3c-6.3 0-11.1 1.6-14.2 4.8-4.4 4.4-4.4 10.7-4.4 10.8v40.4z"/><path class="st1" d="M61.1 17.2l8.4-6.6L70.7 0 0 55.7h12.3zm-2.6 23l-2.8 26.4-4.3-6.6h-9.1l18.6 28.4 6-54.8z"/><path class="st0" d="M19.6 55.7l32.9.1.8-7.6H41.4l39.3-31-5.5 49.4-6.4-9.9-1.3 11.9 13 19.8L90.2 0z"/></g></g></svg>