<?xml version="1.0" standalone="no"?>
<!DOCTYPE svg PUBLIC "-//W3C//DTD SVG 20010904//EN"
 "http://www.w3.org/TR/2001/REC-SVG-20010904/DTD/svg10.dtd">
<svg version="1.0" xmlns="http://www.w3.org/2000/svg"
 width="337.000000pt" height="287.000000pt" viewBox="0 0 337.000000 287.000000"
 preserveAspectRatio="xMidYMid meet">

<g transform="translate(0.000000,287.000000) scale(0.100000,-0.100000)"
fill="#B42828" stroke="none">
<path d="M0 1435 l0 -1435 1685 0 1685 0 0 1435 0 1435 -1685 0 -1685 0 0
-1435z m437 1224 c15 -5 31 -16 35 -22 11 -18 10 -87 -2 -87 -5 0 -10 7 -10
15 0 8 -12 29 -27 45 -51 57 -157 50 -188 -11 -34 -65 -5 -119 100 -192 126
-86 152 -126 142 -214 -6 -57 -31 -92 -87 -120 -71 -36 -217 -26 -240 17 -11
21 -25 120 -16 120 3 0 17 -23 31 -50 15 -29 39 -59 58 -70 36 -22 103 -26
141 -9 36 17 59 72 52 123 -8 49 -36 80 -133 144 -71 48 -99 80 -115 133 -21
72 22 151 97 177 40 14 127 15 162 1z m568 -4 c177 -52 263 -252 182 -428 -32
-71 -66 -107 -129 -142 -49 -28 -61 -30 -153 -30 -114 0 -173 21 -232 81 -71
74 -101 193 -74 301 43 171 227 270 406 218z m727 4 c48 -6 94 -17 102 -23 14
-11 30 -126 17 -126 -4 0 -17 21 -29 46 -29 58 -86 86 -176 86 -124 -1 -209
-67 -241 -187 -42 -152 21 -313 143 -366 54 -23 170 -26 211 -5 29 15 85 74
93 98 3 7 8 10 12 7 11 -11 -13 -88 -33 -108 -25 -25 -148 -45 -224 -36 -190
21 -303 140 -299 314 4 149 103 261 262 297 72 16 61 16 162 3z m418 -19 c-8
-5 -23 -10 -33 -10 -31 0 -37 -46 -37 -283 0 -254 5 -277 56 -277 14 0 22 -4
19 -10 -3 -6 -52 -10 -110 -10 -58 0 -107 4 -110 10 -3 6 5 10 19 10 54 0 56
10 56 280 0 137 -3 255 -6 264 -4 10 -18 16 -35 16 -16 0 -29 5 -29 10 0 6 44
10 113 10 76 0 107 -3 97 -10z m455 -262 c49 -150 97 -280 107 -290 10 -10 29
-18 43 -18 14 0 25 -4 25 -10 0 -6 -44 -10 -111 -10 -71 0 -108 4 -104 10 3 6
15 10 26 10 11 0 22 6 25 14 7 18 -43 181 -59 194 -14 11 -134 16 -170 7 -22
-6 -30 -19 -52 -86 -31 -91 -30 -123 3 -127 12 -2 22 -8 22 -13 0 -5 -40 -9
-90 -9 -53 0 -90 4 -90 10 0 6 10 10 23 10 45 1 55 19 147 260 18 47 38 99 45
115 17 37 43 109 56 152 9 31 32 52 54 53 6 0 50 -123 100 -272z m425 260 c0
-4 -11 -8 -24 -8 -47 0 -51 -17 -54 -255 -4 -256 2 -287 58 -299 48 -9 135 -7
164 4 22 8 57 51 70 85 2 6 6 7 10 4 4 -4 0 -32 -9 -63 l-16 -56 -215 0 c-136
0 -214 4 -214 10 0 6 13 10 29 10 16 0 34 6 40 14 8 10 12 90 13 265 1 268 -1
281 -48 281 -13 0 -24 5 -24 10 0 7 40 10 110 8 61 -1 110 -6 110 -10z m-2651
-824 c33 -7 46 -31 39 -75 -3 -22 -5 -21 -22 13 -45 92 -198 58 -182 -40 7
-43 17 -56 91 -104 104 -70 138 -124 120 -195 -17 -70 -64 -102 -149 -104 -94
-2 -137 29 -135 99 0 25 1 26 12 8 7 -11 26 -35 43 -55 28 -31 36 -35 84 -35
45 0 56 4 76 28 49 56 24 127 -64 182 -70 44 -109 86 -121 130 -29 106 68 176
208 148z m524 -3 c26 -4 49 -10 51 -12 6 -7 13 -109 7 -109 -3 0 -14 18 -24
39 -23 50 -66 71 -144 71 -140 -1 -220 -94 -211 -247 8 -143 87 -226 219 -227
54 -1 72 3 102 24 20 14 42 37 48 53 11 26 29 37 29 17 0 -5 -7 -28 -16 -50
-15 -36 -22 -42 -72 -56 -69 -20 -157 -14 -227 16 -94 40 -144 111 -153 216
-8 103 45 195 140 242 24 12 54 23 68 25 43 7 133 6 183 -2z m291 -16 l-32
-14 -5 -103 c-9 -169 -8 -293 2 -321 8 -20 18 -27 36 -27 14 0 25 -4 25 -10 0
-6 -37 -10 -90 -10 -53 0 -90 4 -90 10 0 6 9 10 20 10 35 0 40 32 40 239 l0
201 -32 20 -33 20 95 -1 c89 -1 93 -1 64 -14z m436 -19 c0 -19 3 -41 6 -50 3
-9 2 -16 -4 -16 -5 0 -13 11 -16 25 -11 42 -45 56 -127 53 l-74 -3 0 -100 0
-100 49 -3 c69 -5 95 4 102 34 10 40 17 19 18 -51 1 -66 -7 -84 -18 -40 -7 27
-45 39 -111 33 l-40 -3 -3 -92 c-4 -122 6 -133 114 -133 69 0 78 2 103 28 15
15 30 34 33 42 3 8 9 12 13 8 4 -4 1 -26 -7 -50 l-15 -43 -187 -3 c-126 -2
-185 1 -181 8 3 5 17 10 30 10 33 0 35 11 39 219 3 204 -1 235 -32 239 -12 2
-22 8 -22 13 0 5 70 9 165 9 l165 0 0 -34z m226 -3 c15 -21 55 -69 88 -108 34
-38 75 -85 91 -104 68 -79 118 -131 126 -131 5 0 9 71 9 158 0 168 -8 202 -51
202 -10 0 -19 5 -19 10 0 6 33 10 80 10 47 0 80 -4 80 -10 0 -5 -6 -10 -13
-10 -7 0 -21 -6 -30 -13 -16 -11 -18 -39 -22 -227 -3 -118 -5 -223 -5 -233 0
-11 -29 16 -76 70 -42 48 -104 119 -138 157 -33 38 -79 91 -100 118 -22 26
-43 48 -48 48 -11 0 -10 -323 2 -354 6 -16 17 -26 29 -26 11 0 23 -4 26 -10 4
-6 -23 -10 -75 -10 -52 0 -79 4 -75 10 3 6 15 10 25 10 10 0 21 8 24 18 9 29
11 386 3 410 -6 14 -20 25 -38 29 -48 9 -33 23 25 23 50 0 55 -2 82 -37z m874
31 c36 -8 53 -39 48 -88 l-3 -31 -17 32 c-31 55 -73 77 -149 77 -57 0 -74 -4
-115 -30 -69 -42 -98 -102 -98 -202 1 -128 55 -207 168 -242 71 -23 165 10
199 68 24 41 34 28 17 -24 -16 -46 -56 -64 -152 -65 -91 -1 -120 6 -184 43
-120 71 -156 231 -79 350 26 39 91 88 140 106 34 12 175 15 225 6z m461 -51
c3 -24 2 -43 -3 -43 -4 0 -8 5 -8 10 0 6 -11 22 -25 35 -22 22 -32 25 -105 25
l-81 0 3 -102 3 -103 40 -3 c66 -6 102 5 109 33 12 46 21 26 21 -45 0 -38 -2
-70 -5 -70 -3 0 -11 14 -17 30 -11 29 -13 30 -82 30 l-71 0 0 -91 c0 -128 1
-129 111 -129 96 0 111 7 139 60 21 39 24 6 4 -45 l-17 -45 -181 4 c-100 2
-183 5 -186 6 -3 1 11 6 30 13 l35 12 0 220 0 219 -25 13 c-21 11 1 13 140 10
l165 -2 6 -42z m-1536 -578 c33 -32 31 -59 -3 -90 l-29 -25 54 -54 c30 -30 58
-56 61 -57 10 -4 72 102 72 122 0 10 -8 20 -17 22 -10 3 11 5 47 5 41 0 56 -3
40 -7 -16 -4 -43 -34 -77 -85 -29 -43 -53 -82 -53 -87 0 -20 34 -61 62 -75 18
-10 42 -13 61 -9 l32 6 -29 -17 c-44 -25 -104 -13 -137 26 -23 27 -27 29 -39
15 -20 -24 -85 -55 -115 -55 -38 0 -83 26 -100 60 -28 54 -17 94 42 146 l35
32 -22 29 c-56 77 48 166 115 98z m-1406 -550 c21 -58 128 -275 137 -275 3 0
41 74 85 165 l80 165 42 -1 c37 0 40 -2 20 -11 -13 -6 -25 -20 -29 -31 -3 -11
-3 -94 1 -184 7 -155 8 -165 29 -173 15 -6 0 -9 -49 -9 -52 0 -64 3 -47 9 21
9 22 13 22 160 0 83 -3 149 -7 146 -5 -3 -42 -75 -83 -160 -41 -85 -78 -155
-81 -155 -4 -1 -21 32 -39 72 -72 162 -113 247 -120 247 -4 0 -10 -64 -14
-142 -7 -139 -6 -143 15 -160 21 -18 20 -18 -37 -17 -50 0 -55 2 -37 11 13 6
25 18 27 27 9 29 27 332 20 342 -3 6 -16 14 -28 19 -16 7 -9 9 27 7 l49 -2 17
-50z m725 43 c3 -7 7 -26 10 -43 6 -28 6 -29 -9 -10 -31 43 -36 45 -105 45
l-70 0 0 -85 0 -85 61 0 c52 0 62 3 66 20 10 37 20 21 19 -30 -1 -51 -10 -65
-19 -31 -3 14 -16 20 -49 22 -78 7 -78 7 -78 -81 0 -97 10 -110 85 -110 69 0
100 12 119 47 18 32 22 10 6 -31 l-10 -26 -147 1 c-99 0 -141 3 -125 9 20 9
22 16 23 102 1 261 1 262 -22 281 -20 16 -17 17 110 17 97 0 133 -3 135 -12z
m401 -12 c82 -35 118 -91 118 -181 0 -68 -15 -105 -65 -152 -51 -49 -80 -56
-220 -57 -121 -1 -153 5 -108 19 19 6 20 15 20 187 0 174 -1 180 -21 185 -16
5 -18 8 -7 15 22 15 238 3 283 -16z m325 13 c0 -4 -9 -9 -20 -12 -19 -5 -20
-14 -20 -184 0 -126 4 -183 12 -191 7 -7 10 -12 8 -13 -3 0 -29 -1 -58 -2 -48
-2 -51 -1 -33 12 20 13 21 23 21 191 0 169 -1 178 -21 191 -19 13 -15 14 45
14 36 0 66 -3 66 -6z m441 -10 c5 -8 8 -30 8 -49 0 -21 -3 -29 -7 -20 -33 74
-131 103 -211 62 -60 -30 -92 -81 -98 -156 -11 -134 63 -226 184 -226 53 0 79
12 116 54 l29 31 -7 -30 c-9 -43 -23 -53 -90 -64 -145 -23 -260 41 -286 159
-25 110 45 223 155 251 48 13 197 4 207 -12z m196 -1 l-27 -10 2 -181 3 -181
25 -13 c22 -11 16 -13 -55 -12 -44 1 -71 4 -60 6 11 3 23 10 27 17 4 6 8 91 8
189 0 175 0 178 -22 187 -17 6 -3 9 52 9 62 -1 70 -2 47 -11z m199 -25 c64
-86 233 -273 246 -273 4 0 8 60 8 133 0 139 -6 161 -45 170 -11 3 12 5 50 5
39 0 63 -2 55 -5 -36 -13 -40 -34 -40 -221 0 -101 -4 -182 -8 -180 -5 2 -40
39 -78 83 -38 44 -76 88 -84 97 -8 9 -40 46 -70 82 -30 36 -58 65 -63 65 -4 1
-6 -67 -5 -151 3 -151 3 -153 28 -165 23 -11 19 -13 -40 -12 -36 1 -58 3 -48
6 27 7 31 30 36 185 5 173 2 193 -35 206 -26 10 -25 10 18 11 43 1 49 -2 75
-36z m664 0 l-1 -38 -17 27 c-18 31 -54 41 -117 36 l-40 -3 -3 -87 -3 -88 49
0 c49 0 75 12 85 40 3 8 5 -14 5 -50 0 -54 -1 -60 -9 -39 -11 29 -33 39 -91
39 l-38 0 0 -90 c0 -105 5 -110 96 -110 52 0 59 3 90 36 36 38 40 35 23 -15
l-11 -31 -151 0 c-129 0 -148 2 -127 13 l25 13 3 180 c2 179 2 181 -20 192
-18 8 7 11 115 11 l137 1 0 -37z"/>
<path d="M827 2637 c-91 -29 -147 -113 -155 -233 -9 -140 59 -279 156 -320 77
-32 186 -10 238 48 49 53 58 87 59 203 0 100 -3 116 -28 170 -56 120 -154 168
-270 132z"/>
<path d="M2426 2449 c-20 -55 -36 -107 -36 -115 0 -11 17 -14 73 -14 41 0 76
2 79 6 3 3 -7 46 -22 97 -34 112 -40 127 -50 127 -4 0 -24 -45 -44 -101z"/>
<path d="M1569 1169 c-22 -22 -19 -50 9 -81 30 -35 66 -10 64 43 -1 57 -36 75
-73 38z"/>
<path d="M1536 999 c-74 -88 25 -201 125 -142 43 26 45 47 8 98 -34 47 -68 75
-93 75 -8 0 -26 -14 -40 -31z"/>
<path d="M1177 653 c-5 -8 -11 -228 -8 -300 2 -71 46 -95 138 -73 69 17 107
55 123 122 26 105 -9 206 -83 241 -36 17 -162 24 -170 10z"/>
</g>
</svg>
